<mxfile host="app.diagrams.net" agent="Mozilla/5.0 (X11; Ubuntu; Linux x86_64; rv:129.0) Gecko/20100101 Firefox/129.0" version="24.7.6">
  <diagram name="uwm" id="-pMMSIxm7zhWLQ-oUwXl">
    <mxGraphModel dx="1137" dy="638" grid="1" gridSize="1" guides="1" tooltips="1" connect="1" arrows="1" fold="1" page="1" pageScale="1" pageWidth="850" pageHeight="1100" math="0" shadow="0">
      <root>
        <mxCell id="0" />
        <mxCell id="1" parent="0" />
        <mxCell id="9SrCHgTtJ7KZjs1FLYit-14" value="" style="shape=ext;double=1;rounded=0;whiteSpace=wrap;html=1;fillColor=#dae8fc;gradientColor=#91D7FF;strokeColor=none;dashed=1;strokeWidth=2;align=center;verticalAlign=middle;fontFamily=Helvetica;fontSize=12;fontColor=default;" vertex="1" parent="1">
          <mxGeometry x="185" y="53" width="635" height="566" as="geometry" />
        </mxCell>
        <mxCell id="pCmtLmL86r-4NyQDz8Vy-25" style="edgeStyle=orthogonalEdgeStyle;rounded=0;orthogonalLoop=1;jettySize=auto;html=1;entryX=0;entryY=0.5;entryDx=0;entryDy=0;" parent="1" source="NwYu7m_eyGxcF0K_Mx45-9" target="pCmtLmL86r-4NyQDz8Vy-10" edge="1">
          <mxGeometry relative="1" as="geometry" />
        </mxCell>
        <mxCell id="NwYu7m_eyGxcF0K_Mx45-9" value="data-notifier" style="rounded=1;whiteSpace=wrap;html=1;fillColor=#E3FBFC;strokeColor=#0226f8;gradientColor=#8ee8e8;" parent="1" vertex="1">
          <mxGeometry x="229" y="434" width="120" height="60" as="geometry" />
        </mxCell>
        <mxCell id="pCmtLmL86r-4NyQDz8Vy-26" style="edgeStyle=orthogonalEdgeStyle;rounded=0;orthogonalLoop=1;jettySize=auto;html=1;entryX=1;entryY=0.5;entryDx=0;entryDy=0;" parent="1" source="NwYu7m_eyGxcF0K_Mx45-13" target="pCmtLmL86r-4NyQDz8Vy-10" edge="1">
          <mxGeometry relative="1" as="geometry" />
        </mxCell>
        <mxCell id="NwYu7m_eyGxcF0K_Mx45-13" value="data-collector" style="rounded=1;whiteSpace=wrap;html=1;fillColor=#E3FBFC;strokeColor=#0226f8;gradientColor=#8ee8e8;" parent="1" vertex="1">
          <mxGeometry x="368" y="434" width="120" height="60" as="geometry" />
        </mxCell>
        <mxCell id="9SrCHgTtJ7KZjs1FLYit-8" style="edgeStyle=orthogonalEdgeStyle;rounded=0;orthogonalLoop=1;jettySize=auto;html=1;entryX=1;entryY=0.7;entryDx=0;entryDy=0;" edge="1" parent="1" source="pCmtLmL86r-4NyQDz8Vy-1" target="9SrCHgTtJ7KZjs1FLYit-6">
          <mxGeometry relative="1" as="geometry" />
        </mxCell>
        <mxCell id="9SrCHgTtJ7KZjs1FLYit-9" style="rounded=0;orthogonalLoop=1;jettySize=auto;html=1;entryX=0.5;entryY=0;entryDx=0;entryDy=0;edgeStyle=orthogonalEdgeStyle;elbow=vertical;" edge="1" parent="1" source="pCmtLmL86r-4NyQDz8Vy-1" target="9SrCHgTtJ7KZjs1FLYit-3">
          <mxGeometry relative="1" as="geometry" />
        </mxCell>
        <mxCell id="pCmtLmL86r-4NyQDz8Vy-1" value="RestAPI" style="rounded=1;whiteSpace=wrap;html=1;fillColor=#E3FBFC;strokeColor=#0226f8;gradientColor=#8ee8e8;" parent="1" vertex="1">
          <mxGeometry x="680" y="149" width="120" height="60" as="geometry" />
        </mxCell>
        <mxCell id="pCmtLmL86r-4NyQDz8Vy-2" value="uwm-dashboard" style="rounded=1;whiteSpace=wrap;html=1;fillColor=#E3FBFC;strokeColor=#0226f8;gradientColor=#8ee8e8;" parent="1" vertex="1">
          <mxGeometry x="680" y="449.84000000000003" width="120" height="60" as="geometry" />
        </mxCell>
        <mxCell id="9SrCHgTtJ7KZjs1FLYit-11" style="edgeStyle=orthogonalEdgeStyle;rounded=0;orthogonalLoop=1;jettySize=auto;html=1;" edge="1" parent="1" source="pCmtLmL86r-4NyQDz8Vy-11">
          <mxGeometry relative="1" as="geometry">
            <mxPoint x="429" y="196" as="targetPoint" />
          </mxGeometry>
        </mxCell>
        <mxCell id="9SrCHgTtJ7KZjs1FLYit-12" style="edgeStyle=orthogonalEdgeStyle;rounded=0;orthogonalLoop=1;jettySize=auto;html=1;entryX=0.5;entryY=0;entryDx=0;entryDy=0;" edge="1" parent="1" source="pCmtLmL86r-4NyQDz8Vy-11" target="9SrCHgTtJ7KZjs1FLYit-6">
          <mxGeometry relative="1" as="geometry" />
        </mxCell>
        <mxCell id="pCmtLmL86r-4NyQDz8Vy-11" value="" style="shape=image;verticalLabelPosition=bottom;labelBackgroundColor=default;verticalAlign=top;aspect=fixed;imageAspect=0;image=data:image/svg+xml,PHN2ZyB2aWV3Qm94PSIwIDAgMTI4IDEyOCIgeG1sbnM9Imh0dHA6Ly93d3cudzMub3JnLzIwMDAvc3ZnIj48cGF0aCBkPSJNNTcuNjQ2LjAwNGMtMi4yNjkuMDY0LTQuNTEgMS4xNDMtNi4zODQgMy4yMjMtMS4wMyAxLjE0Ni0xLjkwNSAyLjUxLTIuNjMgMy44NTUtMS44OSAzLjU0LTIuMjYyIDcuNTQ3LTIuOTYyIDExLjQzbC0zLjg1MiAyMS44MWMtLjE0OC44NTYtLjUzMiAxLjIxLTEuMyAxLjQ1NWwtMjguMjY4IDguOThjLTIuMDYuNjczLTQuMTI1IDEuNTQzLTUuOTQ3IDIuNy01LjU1OCAzLjUzLTYuMzggOS4zMzgtMi4yMDcgMTQuNDM4IDEuODQyIDIuMjU2IDQuMjE2IDMuODQzIDYuODUgNC45OTZsMTcuNjAzIDcuODQzYy4xNDcuMDguMzA0LjEzMi40NjMuMTYybDMuNzE3IDIuNjgycy0zLjcgNDAuOTQ4IDMuMjQ2IDQzLjc4MWMtLjA2MS0uMDEtLjQxLS4wODItLjQxLS4wODJzLjcwNC43NjEgMi42MDMuNTM3YzEuNDU0LjI3IDEuMjYyLjIyNi4wNzQtLjAxIDIuNTgzLS4zMzQgNy4zMzctMi40OTcgMTUuNTc4LTEwLjc4NGE0Ny4zOTYgNDcuMzk2IDAgMCAwIDEuNzc2LTEuNjc2bDE3LjgtMTkuMjE3IDQuMTYzIDEuNDY1Yy4xNS4yMDcuMzY3LjM0LjcxNC40NDNsMTkuODIzIDYuMDMxYzIuNzA5LjgzNiA1LjM4OSAxLjQ0OCA4LjI3NyAxLjAyNiA1LjE1Ni0uNzU1IDguOTUxLTUgOC45LTEwLjE5Mi0uMDItMi4yOC0uODItNC4zMzktMS44Ny02LjMyNGwtMTMuMTI4LTI0Ljg5OGMtLjQxOC0uNzg3LS40MDUtMS4yOTYuMTk2LTJsMjIuMDU0LTI1LjkyMmMxLjQyOC0xLjcwMyAyLjcxNy0zLjUyOSAzLjQ2NS01LjY0NSAxLjY0My00LjY3LS40ODItOC4zODItNS4zMy05LjI4OS0yLjIyOS0uMzk4LTQuNDI3LS4xODgtNi42LjM4NWwtMzEuNTk3IDguMzk1Yy0uOTMuMjUtMS4zOS4wNzUtMS44OTUtLjc3MmwtMTIuOS0yMS40MzRjLS45NzUtMS42MTUtMi4xNC0zLjE5NC0zLjQ3Ny00LjUyN0M2Mi4yMTIuODkgNTkuOTE1LS4wNTkgNTcuNjQ2LjAwNHptLjk0NCAxOS43MzZjLjUxLjM1OC43NjguNzI3IDEuMDEgMS4xMjVsMTMuODggMjMuMTNjLjM4Mi42MjguNzI1Ljg1IDEuNDg1LjY0OGwyNC40NDMtNi40OTcgNS44ODUtMS41NGMtLjA4Ny40OTMtLjMwMi43OS0uNTM3IDEuMDY4bC0yMC4xNiAyMy42NzJjLS41Ny42ODgtLjYyMyAxLjE3LS4xOTQgMS45NzZsMTIuNzQzIDI0LjE2LjU4NSAxLjIzNy0uMDE1LjAyLTIyLjcyNy02LjI2NC0uMDA2LS4wMTgtNC4yOTgtMS4yMDUtMjUuNDkzIDI4LjI1NiA0LjY2My0zNy4xNS00LjE4NC0xLjgyLjAwOC0uMDA3LTIzLjY3NC05LjRjLjQ1NC0uNDEzLjg2LS41ODUgMS4yODUtLjcxN2wyOC43NzctOS4wOTZjLjY3Ni0uMjEgMS4wNjEtLjQ3IDEuMTI1LTEuMjQybC40MDMtMi4zNTUgMy44NzUtMjEuODA3IDEuMTItNi4xNzR6IiBmaWxsPSIjZTE1OTE5Ii8+PC9zdmc+;" parent="1" vertex="1">
          <mxGeometry x="392" y="63" width="75" height="75" as="geometry" />
        </mxCell>
        <mxCell id="pCmtLmL86r-4NyQDz8Vy-12" value="" style="shape=image;verticalLabelPosition=bottom;labelBackgroundColor=default;verticalAlign=top;aspect=fixed;imageAspect=0;image=data:image/svg+xml,PHN2ZyB2aWV3Qm94PSIwIDAgMTI4IDEyOCIgeG1sbnM9Imh0dHA6Ly93d3cudzMub3JnLzIwMDAvc3ZnIj48cGF0aCBkPSJNMjAgOTYuOXYtOC4xYzAtMS4xLjctMS45IDEuOC0xLjloLjNjMS4xIDAgMS44LjkgMS44IDEuOXYxN2MwIDQuMS0yIDcuNC01LjYgOS41LTEuNyAxLTMuNSAxLjUtNS40IDEuNWgtLjhjLTQuMSAwLTcuNC0yLTkuNS01LjYtMS0xLjctMS41LTMuNS0xLjUtNS40di0uOGMwLTQuMSAyLTcuNCA1LjYtOS41IDEuNy0xIDMuNS0xLjUgNS40LTEuNWguOGMyLjcuMSA1LjEgMS4xIDcuMSAyLjl6bS0xNS4xIDguNWMwIDMgMS41IDUuMiA0LjEgNi43IDEuMS42IDIuMi45IDMuNC45IDIuOSAwIDUuMS0xLjQgNi42LTMuOS43LTEuMiAxLTIuNCAxLTMuOCAwLTIuNi0xLjItNC42LTMuMy02LjEtMS4zLS45LTIuNy0xLjQtNC4yLTEuNC0zLjIgMC01LjUgMS42LTYuOSA0LjUtLjUgMS0uNyAyLjEtLjcgMy4xem0zMi4yLTExLjNoLjVjNC40IDAgNy44IDIuMSA5LjkgNiAuOSAxLjUgMS4zIDMuMiAxLjMgNXYuOGMwIDQuMS0yIDcuNC01LjYgOS41LTEuNyAxLTMuNSAxLjUtNS40IDEuNUgzN2MtNC4xIDAtNy40LTItOS41LTUuNi0xLTEuNy0xLjUtMy41LTEuNS01LjR2LS44YzAtNC4xIDIuMS03LjQgNS42LTkuNSAxLjctMS4xIDMuNi0xLjUgNS41LTEuNXptLTcuMiAxMS4zYzAgMi45IDEuNCA1IDMuOSA2LjUgMS4yLjcgMi40IDEgMy44IDEgMi45IDAgNS0xLjUgNi41LTMuOS43LTEuMiAxLTIuNCAxLTMuOCAwLTIuNy0xLjMtNC44LTMuNS02LjMtMS4yLS44LTIuNi0xLjItNC0xLjItMy4yIDAtNS41IDEuNi02LjkgNC41LS42IDEuMS0uOCAyLjItLjggMy4yem0zNC44LTcuMmMtLjYtLjMtMS43LS40LTIuMy0uNC0zLjItLjEtNS41IDEuNy02LjkgNC41LS41IDEtLjcgMi0uNyAzLjEgMCAzLjMgMS43IDUuNiA0LjYgNyAxLjEuNSAyLjQuNiAzLjYuNiAxIDAgMi41LS42IDMuNC0xLjFsLjItLjFoLjhjLjkuMiAxLjUuNyAxLjUgMS43di40YzAgMi4zLTQuMyAyLjktNS45IDMtNS43LjQtMTAtMi43LTExLjYtOC4yLS4zLS45LS40LTEuOS0uNC0yLjl2LS44YzAtNC4xIDIuMS03LjQgNS42LTkuNSAxLjctMSAzLjUtMS41IDUuNC0xLjVoLjhjMiAwIDMuOS42IDUuNiAxLjdsLjEuMS4xLjFjLjIuMy4zLjYuMyAxdi40YzAgMS0uNyAxLjUtMS42IDEuN0g2N2MtLjUgMC0xLjgtLjYtMi4zLS44em0xMi40IDIuNmMxLjUtMS41IDMtMyA0LjUtNC40LjQtLjQgMi0yLjEgMi42LTIuMWguOGMuOS4yIDEuNS43IDEuNSAxLjd2LjRjMCAuNi0uNyAxLjQtMS4yIDEuOGwtMi43IDIuNy00LjYgNC43YzIgMiA0IDQgNS45IDZsMS42IDEuN2MuMi4yLjUuNC42LjcuMi4zLjMuNi4zLjl2LjVjLS4yLjktLjggMS42LTEuNyAxLjZoLS4zYy0uNiAwLTEuMy0uNy0xLjgtMS4xLS45LS44LTEuOC0xLjctMi42LTIuNmwtMi45LTIuOXY0LjZjMCAxLjEtLjcgMS45LTEuOCAxLjlINzVjLTEuMSAwLTEuOC0uOS0xLjgtMS45Vjg4LjljMC0xLjEuNy0xLjkgMS44LTEuOWguM2MxLjEgMCAxLjguOCAxLjggMS45djExLjl6bTQ3LjYtNi42aC40YzEuMSAwIDEuOS44IDEuOSAxLjkgMCAxLjYtMS41IDItMi44IDItMS43IDAtMy40IDEtNC41IDIuMi0xLjUgMS41LTIuMSAzLjMtMi4xIDUuNHY5LjJjMCAxLjEtLjcgMS45LTEuOCAxLjloLS4zYy0xLjEgMC0xLjgtLjktMS44LTEuOXYtOS44YzAtMy44IDEuOC02LjggNC45LTkgMS44LTEuMiAzLjktMS45IDYuMS0xLjl6bS0yNy4xIDE4LjNjMS40LjUgMyAuNCA0LjQuMi43LS4zIDIuNi0xLjEgMy4zLTFoLjJjLjQuMi44LjUgMSAuOS41IDEgLjMgMi0uNyAyLjZsLS4zLjJjLTMuNiAyLjEtNy41IDEuOC0xMS4xLS4yLTEuNy0uOS0zLTIuMy00LTRsLS4yLS40Yy0yLjMtNC0yLTguMy42LTEyLjEuOS0xLjMgMi4xLTIuMyAzLjUtMy4xbC41LS4zYzMuNC0yIDcuMS0xLjggMTAuNi0uMSAxLjkuOSAzLjQgMi4zIDQuNSA0LjFsLjIuM2MuOCAxLjMtLjIgMi41LTEuMiAzLjMtMS4yLjktMi40IDItMy41IDMtMi43IDIuMi01LjMgNC40LTcuOCA2LjZ6bS0zLjMtMi4zbDguNS03LjNjMS0uOCAyLTEuNyAzLTIuNi0uOC0xLTIuMS0xLjctMy4xLTIuMS0yLjItLjgtNC40LS42LTYuNC42LTIuNiAxLjUtMy44IDQtMy43IDcgMCAxLjIuNCAyLjMgMSAzLjQuMi40LjQuNy43IDFNNzMuNyAzMy43SDg1djExLjVoNS43YzIuNiAwIDUuMy0uNSA3LjgtMS4zIDEuMi0uNCAyLjYtMSAzLjgtMS43LTEuNi0yLjEtMi40LTQuNy0yLjYtNy4zLS4zLTMuNS40LTguMSAyLjgtMTAuOGwxLjItMS40IDEuNCAxLjFjMy42IDIuOSA2LjUgNi44IDcuMSAxMS40IDQuMy0xLjMgOS4zLTEgMTMuMSAxLjJsMS41LjktLjggMS42Yy0zLjIgNi4yLTkuOSA4LjItMTYuNCA3LjgtOS44IDI0LjMtMzEgMzUuOC01Ni44IDM1LjgtMTMuMyAwLTI1LjUtNS0zMi41LTE2LjhsLS4xLS4yLTEtMi4xYy0yLjQtNS4yLTMuMS0xMC45LTIuNi0xNi42bC4yLTEuN2g5LjZWMzMuN2gxMS4zVjIyLjRoMjIuNVYxMS4xaDEzLjV2MjIuNnoiIGZpbGw9IiMzQTRENTQiIGNsaXAtcnVsZT0iZXZlbm9kZCIgZmlsbC1ydWxlPSJldmVub2RkIi8+PHBhdGggZD0iTTExMC4yIDM3LjljLjgtNS45LTMuNi0xMC41LTYuNC0xMi43LTMuMSAzLjYtMy42IDEzLjIgMS4zIDE3LjItMi44IDIuNC04LjUgNC43LTE0LjUgNC43SDE4LjRjLS42IDYuMi41IDExLjkgMyAxNi44bC44IDEuNWMuNS45IDEuMSAxLjcgMS43IDIuNiAzIC4yIDUuNy4zIDguMi4yIDQuOS0uMSA4LjktLjcgMTItMS43LjUtLjIuOS4xIDEuMS41LjIuNS0uMS45LS41IDEuMS0uNC4xLS44LjMtMS4zLjQtMi40LjctNSAxLjEtOC4zIDEuM2gtLjZjLTEuMy4xLTIuNy4xLTQuMi4xLTEuNiAwLTMuMSAwLTQuOS0uMSA2IDYuOCAxNS40IDEwLjggMjcuMiAxMC44IDI1IDAgNDYuMi0xMS4xIDU1LjUtMzUuOSA2LjcuNyAxMy4xLTEgMTYtNi43LTQuNS0yLjYtMTAuNS0xLjgtMTMuOS0uMXoiIGZpbGw9IiMwMEFBREEiLz48cGF0aCBkPSJNMTEwLjIgMzcuOWMuOC01LjktMy42LTEwLjUtNi40LTEyLjctMy4xIDMuNi0zLjYgMTMuMiAxLjMgMTcuMi0yLjggMi40LTguNSA0LjctMTQuNSA0LjdoLTY4Yy0uMyA5LjUgMy4yIDE2LjcgOS41IDIxIDQuOS0uMSA4LjktLjcgMTItMS43LjUtLjIuOS4xIDEuMS41LjIuNS0uMS45LS41IDEuMS0uNC4xLS44LjMtMS4zLjQtMi40LjctNS4yIDEuMi04LjUgMS40bC0uMS0uMWM4LjUgNC40IDIwLjggNC4zIDM1LTEuMSAxNS44LTYuMSAzMC42LTE3LjcgNDAuOS0zMC45LS4yLjEtLjMuMi0uNS4yeiIgZmlsbD0iIzI4QjhFQiIvPjxwYXRoIGQ9Ik0xOC41IDU0LjZjLjQgMy4zIDEuNCA2LjQgMi45IDkuM2wuOCAxLjVjLjUuOSAxLjEgMS43IDEuNyAyLjYgMyAuMiA1LjcuMyA4LjIuMiA0LjktLjEgOC45LS43IDEyLTEuNy41LS4yLjkuMSAxLjEuNS4yLjUtLjEuOS0uNSAxLjEtLjQuMS0uOC4zLTEuMy40LTIuNC43LTUuMiAxLjItOC41IDEuNGgtLjRjLTEuMy4xLTIuNy4xLTQuMS4xLTEuNiAwLTMuMiAwLTQuOS0uMSA2IDYuOCAxNS41IDEwLjggMjcuMyAxMC44IDIxLjQgMCA0MC04LjEgNTAuOC0yNkgxOC41di0uMXoiIGZpbGw9IiMwMjhCQjgiLz48cGF0aCBkPSJNMjMuMyA1NC42YzEuMyA1LjggNC4zIDEwLjQgOC44IDEzLjUgNC45LS4xIDguOS0uNyAxMi0xLjcuNS0uMi45LjEgMS4xLjUuMi41LS4xLjktLjUgMS4xLS40LjEtLjguMy0xLjMuNC0yLjQuNy01LjIgMS4yLTguNiAxLjQgOC41IDQuNCAyMC44IDQuMyAzNC45LTEuMSA4LjUtMy4zIDE2LjgtOC4yIDI0LjItMTQuMUgyMy4zeiIgZmlsbD0iIzAxOUJDNiIvPjxwYXRoIGQ9Ik0yOC4yIDM1LjVIMzh2OS44aC05Ljh2LTkuOHptLjguOWguOHY4LjFIMjl2LTguMXptMS41IDBoLjh2OC4xaC0uOHYtOC4xem0xLjUgMGguOHY4LjFIMzJ2LTguMXptMS40IDBoLjh2OC4xaC0uOHYtOC4xem0xLjUgMGguOHY4LjFoLS44di04LjF6bTEuNSAwaC44djguMWgtLjh2LTguMXptMy4xLTEyLjFoOS44VjM0aC05Ljh2LTkuN3ptLjguOGguOHY4LjFoLS44di04LjF6bTEuNSAwaC44djguMWgtLjh2LTguMXptMS40IDBoLjh2OC4xaC0uOHYtOC4xem0xLjUgMGguOHY4LjFoLS44di04LjF6bTEuNSAwaC44djguMWgtLjh2LTguMXptMS41IDBoLjh2OC4xaC0uOHYtOC4xeiIgZmlsbD0iIzAwQUNEMyIgY2xpcC1ydWxlPSJldmVub2RkIiBmaWxsLXJ1bGU9ImV2ZW5vZGQiLz48cGF0aCBkPSJNMzkuNSAzNS41aDkuOHY5LjhoLTkuOHYtOS44em0uOC45aC44djguMWgtLjh2LTguMXptMS41IDBoLjh2OC4xaC0uOHYtOC4xem0xLjQgMGguOHY4LjFoLS44di04LjF6bTEuNSAwaC44djguMWgtLjh2LTguMXptMS41IDBoLjh2OC4xaC0uOHYtOC4xem0xLjUgMGguOHY4LjFoLS44di04LjF6IiBmaWxsPSIjMjNDMkVFIiBjbGlwLXJ1bGU9ImV2ZW5vZGQiIGZpbGwtcnVsZT0iZXZlbm9kZCIvPjxwYXRoIGQ9Ik01MC44IDM1LjVoOS44djkuOGgtOS44di05Ljh6bS44LjloLjh2OC4xaC0uOHYtOC4xem0xLjQgMGguOHY4LjFINTN2LTguMXptMS41IDBoLjh2OC4xaC0uOHYtOC4xem0xLjUgMGguOHY4LjFINTZ2LTguMXptMS41IDBoLjh2OC4xaC0uOHYtOC4xem0xLjQgMGguOHY4LjFoLS44di04LjF6IiBmaWxsPSIjMDBBQ0QzIiBjbGlwLXJ1bGU9ImV2ZW5vZGQiIGZpbGwtcnVsZT0iZXZlbm9kZCIvPjxwYXRoIGQ9Ik01MC44IDI0LjNoOS44VjM0aC05Ljh2LTkuN3ptLjguOGguOHY4LjFoLS44di04LjF6bTEuNCAwaC44djguMUg1M3YtOC4xem0xLjUgMGguOHY4LjFoLS44di04LjF6bTEuNSAwaC44djguMUg1NnYtOC4xem0xLjUgMGguOHY4LjFoLS44di04LjF6bTEuNCAwaC44djguMWgtLjh2LTguMXpNNjIgMzUuNWg5Ljh2OS44SDYydi05Ljh6bS45LjloLjh2OC4xaC0uOHYtOC4xem0xLjQgMGguOHY4LjFoLS44di04LjF6bTEuNSAwaC44djguMWgtLjh2LTguMXptMS41IDBoLjh2OC4xaC0uOHYtOC4xem0xLjQgMGguOHY4LjFoLS44di04LjF6bTEuNSAwaC44djguMWgtLjh2LTguMXoiIGZpbGw9IiMyM0MyRUUiIGNsaXAtcnVsZT0iZXZlbm9kZCIgZmlsbC1ydWxlPSJldmVub2RkIi8+PHBhdGggZD0iTTYyIDI0LjNoOS44VjM0SDYydi05Ljd6bS45LjhoLjh2OC4xaC0uOHYtOC4xem0xLjQgMGguOHY4LjFoLS44di04LjF6bTEuNSAwaC44djguMWgtLjh2LTguMXptMS41IDBoLjh2OC4xaC0uOHYtOC4xem0xLjQgMGguOHY4LjFoLS44di04LjF6bTEuNSAwaC44djguMWgtLjh2LTguMXoiIGZpbGw9IiMwMEFDRDMiIGNsaXAtcnVsZT0iZXZlbm9kZCIgZmlsbC1ydWxlPSJldmVub2RkIi8+PHBhdGggZD0iTTYyIDEzaDkuOHY5LjhINjJWMTN6bS45LjhoLjhWMjJoLS44di04LjJ6bTEuNCAwaC44VjIyaC0uOHYtOC4yem0xLjUgMGguOFYyMmgtLjh2LTguMnptMS41IDBoLjhWMjJoLS44di04LjJ6bTEuNCAwaC44VjIyaC0uOHYtOC4yem0xLjUgMGguOFYyMmgtLjh2LTguMnoiIGZpbGw9IiMyM0MyRUUiIGNsaXAtcnVsZT0iZXZlbm9kZCIgZmlsbC1ydWxlPSJldmVub2RkIi8+PHBhdGggZD0iTTczLjMgMzUuNWg5Ljh2OS44aC05Ljh2LTkuOHptLjguOWguOHY4LjFoLS44di04LjF6bTEuNSAwaC44djguMWgtLjh2LTguMXptMS41IDBoLjh2OC4xaC0uOHYtOC4xem0xLjQgMGguOHY4LjFoLS44di04LjF6bTEuNSAwaC44djguMUg4MHYtOC4xem0xLjUgMGguOHY4LjFoLS44di04LjF6IiBmaWxsPSIjMDBBQ0QzIiBjbGlwLXJ1bGU9ImV2ZW5vZGQiIGZpbGwtcnVsZT0iZXZlbm9kZCIvPjxwYXRoIGQ9Ik00OC42IDYxLjJjMS41IDAgMi43IDEuMiAyLjcgMi43IDAgMS41LTEuMiAyLjctMi43IDIuNy0xLjUgMC0yLjctMS4yLTIuNy0yLjcuMS0xLjUgMS4zLTIuNyAyLjctMi43IiBmaWxsPSIjRDRFRUYxIiBjbGlwLXJ1bGU9ImV2ZW5vZGQiIGZpbGwtcnVsZT0iZXZlbm9kZCIvPjxwYXRoIGQ9Ik00OC42IDYxLjljLjIgMCAuNSAwIC43LjEtLjIuMS0uNC40LS40LjcgMCAuNC40LjguOC44LjMgMCAuNi0uMi43LS40LjEuMi4xLjUuMS43IDAgMS4xLS45IDEuOS0xLjkgMS45LTEuMSAwLTEuOS0uOS0xLjktMS45IDAtMSAuOS0xLjkgMS45LTEuOU0xIDU1LjZoMTI1LjNjLTIuNy0uNy04LjYtMS42LTcuNy01LjItNSA1LjctMTYuOSA0LTIwIDEuMi0zLjQgNC45LTIzIDMtMjQuMy0uOC00LjIgNS0xNy4zIDUtMjEuNSAwLTEuNCAzLjgtMjEgNS43LTI0LjMuOC0zIDIuOC0xNSA0LjUtMjAtMS4yIDEuMSAzLjUtNC44IDQuNS03LjUgNS4yIiBmaWxsPSIjM0E0RDU0IiBjbGlwLXJ1bGU9ImV2ZW5vZGQiIGZpbGwtcnVsZT0iZXZlbm9kZCIvPjxwYXRoIGQ9Ik01NS44IDgwLjZjLTYuNy0zLjItMTAuMy03LjUtMTIuNC0xMi4yLTIuNS43LTUuNSAxLjItOC45IDEuNC0xLjMuMS0yLjcuMS00LjEuMS0xLjcgMC0zLjQgMC01LjItLjEgNi4xIDYuMSAxMy43IDEwLjggMjcuNiAxMC45IDEtLjEgMi0uMSAzLS4xeiIgZmlsbD0iI0JGREJFMCIvPjxwYXRoIGQ9Ik00NS45IDcyLjdjLS45LTEuMy0xLjgtMi44LTIuNS00LjMtMi41LjctNS41IDEuMi04LjkgMS40IDIuNCAxLjMgNS44IDIuNSAxMS40IDIuOXoiIGZpbGw9IiNENEVFRjEiLz48L3N2Zz4=;" parent="1" vertex="1">
          <mxGeometry x="195" y="63" width="92" height="92" as="geometry" />
        </mxCell>
        <mxCell id="pCmtLmL86r-4NyQDz8Vy-15" value="" style="shape=image;verticalLabelPosition=bottom;labelBackgroundColor=default;verticalAlign=top;aspect=fixed;imageAspect=0;image=data:image/svg+xml,PHN2ZyB2aWV3Qm94PSIwIDAgMTI4IDEyOCIgeG1sbnM9Imh0dHA6Ly93d3cudzMub3JnLzIwMDAvc3ZnIj48ZyBjbGlwLXJ1bGU9ImV2ZW5vZGQiIGZpbGwtcnVsZT0iZXZlbm9kZCI+PHBhdGggZD0iTTUxLjgzNCAyMy4wMTdjMy43NTYgMCA3LjUxMi4wNTggMTEuMjYzLS4wNC45OTUtLjAyNiAyLjc4Ljc5NyAyLjctMS4yNzEtLjA2MS0xLjY4My0xLjYyMi0xLjA3NC0yLjU2OC0xLjA4OS00LjIzNy0uMDY3LTguNDg4LS4yMjgtMTIuNzA4LjAzNy0zLjAwMy4xODctMy44ODgtLjk1My0zLjUxMS0zLjcwNy4xMy0uOTUuMDA1LTEuOTM0LjAyNS0yLjkwMi4xMzItNi40NDYgMS42OS04LjY0IDcuOTQyLTEwLjIzIDYuODg4LTEuNzUgMTMuOTM3LTEuNjkyIDIwLjgwNi0uMTg0IDYuMTc1IDEuMzU2IDguNzQgNi4xNiA4LjQyOCAxMC42MDQtLjM4IDUuNDIzLS4wODYgMTAuODkzLS4wOTEgMTYuMzQzLS4wMDkgNi44NTMtMy41NSAxMC40OS0xMC40NTkgMTAuNTg1LTUuNjkuMDc4LTExLjM4Ny4xNC0xNy4wNzQtLjAxOC02Ljc3OC0uMTktMTEuNzUgNS40NC0xMS43ODQgMTEuODIgMCAuNDg0LjA4My45ODQtLjAxMyAxLjQ1MS0uNDg4IDIuMzQzIDEuNDYyIDYuMTMtMS4wMjIgNi44MjYtMy43OCAxLjA2Mi04LjIwNiAxLjA2Mi0xMS41NC0yLjMxMS0xLjEzLTEuMTQtMi4wODItMi40MTctMi41ODQtMy44OTMtMi42NzktNy44NjUtMy4xMDItMTUuODMtLjU4LTIzLjgxOCAxLjU3Mi00Ljk4NiA1Ljg0OC04LjA4NyAxMS4xNDUtOC4xNzYgMy44NzQtLjA2NSA3Ljc0OS0uMDEzIDExLjYyMy0uMDEzbC4wMDItLjAxNHptNi45MDItMTEuMTJjLS4xNjItMS45MDMtMS4xODUtMy4yOTItMy4yOTYtMy4zNS0yLjMwOS0uMDYtMy41MDIgMS4zMzYtMy41MDUgMy42MDgtLjAwMiAyLjEwNiAxLjE0NSAzLjQ1NSAzLjI0MSAzLjUxNiAyLjMwMy4wNjcgMy40MTgtMS4zNiAzLjU2LTMuNzc0eiIgZmlsbD0iIzM4NmY5ZiIvPjxwYXRoIGQ9Ik04MC44MjQgNjEuNTcyYy00LjI0IDAtOC40ODItLjAzNy0xMi43MjIuMDMtLjk1NS4wMTItMi41NTctLjU5Mi0yLjYwNyAxLjA0MS0uMDU2IDEuODUyIDEuNjYzIDEuMzcgMi43NTUgMS4zODEgNC4yNC4wNTMgOC40ODQuMDk4IDEyLjcyMy0uMDIgMi4xNzgtLjA2IDMuMDY3LjM1NyAzLjIzIDIuOTI1LjczNyAxMS42MjUtNC4zMDggMTIuNjMtMTMuNjEzIDE0Ljc0NS01LjMzOCAxLjIxMy0xMS4wNjEuNTctMTYuMzI1LTEuNzg4LTQuMzUzLTEuOTQ3LTcuMDI0LTQuNzUzLTYuNjg3LTEwLjAwNy4zMzQtNS4xODYuMzktMTAuNDM5LS4wMDktMTUuNjItLjQ4LTYuMjUzIDMuNDEtMTAuODUyIDEwLjk3NS0xMC44NTQgNS4wOS0uMDAxIDEwLjIxNC0uMzg5IDE1LjI2LjA3NSA3LjIxNS42NjIgMTIuODcyLTUuNTkyIDEzLjEyLTEyLjg2NC4wMS0uMjQxLS4wNTItLjUuMDEtLjcyNC42MzYtMi4yMzUtMS42MjYtNS41NTcgMS40LTYuNjg2IDQuNTczLTEuNzA1IDkuNzMuMDg3IDEyLjA2NiAzLjU1NyAyLjk0NSA0LjM2OSAzLjM0MyA5LjUxIDMuODE5IDE0LjUzLjUxNSA1LjQxMS0xLjAwMyAxMC41MDUtMy4yNzYgMTUuMzg2LTEuNTQ0IDMuMzEtNC4xNCA0LjkxLTcuNzU3IDQuOTE1LTQuMTIuMDAzLTguMjM5IDAtMTIuMzYgMC0uMDAyLS4wMDgtLjAwMi0uMDE1LS4wMDItLjAyMnptLTEuMTA0IDEwLjhjLS40NTMtMi4wNjYtMS4zODUtMy40NzYtMy43ODUtMy41MzUtMi40OTYtLjA2LTMuMTQgMS44MDctMy4xMjcgMy40NzQuMDE0IDEuNzcyLjUwOCAzLjk1MiAzLjIxIDMuNzQ4IDIuMjQ2LS4xNzIgMy4zNDEtMS41NjMgMy43MDItMy42ODd6IiBmaWxsPSIjZmZjZjQ2Ii8+PHBhdGggZD0iTTE0LjEyOSAxMTQuODQ5YzAgMi41ODIuMTE3IDUtLjA1NSA3LjM5Ny0uMDc0IDEuMDM0IDEuMDY2IDIuOTgtMS4xMDMgMi45NzgtMS45MTIgMC0yLjQwMy0xLjUyMi0yLjM0Mi0zLjM2MS4xMTctMy41MS4wMzQtNy4wMjcuMDM0LTEwLjU0di03Ljk5OGMwLTQuODIgMS4yOTMtNi40NTIgNS45MDMtNy40NSA0LjI4Ni0uOTMyIDcuNjU0LjUxMSA5LjM4NiA0LjI2MyAxLjczMiAzLjc1MyAxLjg2NiA3LjYyLjEzMyAxMS40MzgtMS43MDggMy43NjItNC44NTQgNS4xNjYtOC44ODQgNC4wNTEtLjkxOC0uMjUtMS44NDUtLjQ2Ny0zLjA3Mi0uNzc4em0wLTkuNDQ4YzAgMS4zMy4xOCAyLjY4Ni0uMDM3IDMuOTgtLjUwMiAyLjk5MSAxLjQwOCAzLjcyOCAzLjY2IDQuMjYgMi4yMjcuNTI2IDMuNzU0LS40MjEgNC42NDctMi4zODMgMS41MDEtMy4yOSAxLjc1My02LjY4My42MTMtMTAuMTYyLTEuMDEyLTMuMDkyLTMuMzQ5LTMuNDU0LTYuMDc3LTMuMDctMi42OTQuMzgzLTMuMDU5IDIuMjE1LTIuODI0IDQuNDguMS45NTUuMDE4IDEuOTMuMDE4IDIuODk1ek00My4xMTYgMTE0LjY4OWMtMS44NDUuNDgtMy40NDcuOTkyLTUuMDg3IDEuMy0zLjU5LjY3MS02LjI0OC0xLjMtNy4xODMtNC44OTQtMS4xNi00LjQ0OC0uMTc4LTguODc5LS4xNDgtMTMuMzE3LjAxMy0yLjAyMyAxLjg4NS0xLjIzNCAzLjE4LTIuMzE4IDAgNC43NS4wMTggOC44NS0uMDA2IDEyLjk0Ny0uMDEzIDIuMDU4LjUxOSAzLjc1IDIuNDY1IDQuODM1IDIuMTQ4IDEuMTk4IDMuOTEuMDU3IDUuNzgtLjcxMiAxLjM0LS41NTEgMS4xNzMtMS42NzYgMS4xNzUtMi43NDYuMDEtMy44NzItLjAwMS03Ljc0LjAxMi0xMS42MTIuMDAyLS45NTUtLjA5Ny0yLjEyMiAxLjMxMy0yLjA3NSAxLjI1Ny4wNDEgMS44MDQuNzg4IDEuNzgzIDIuMTU4LS4wOTEgNi40MDcuMDkgMTIuODIzLS4xNyAxOS4yMjEtLjE5NyA0LjgzOC0zLjYxIDcuNzkzLTguNTIgOC4wMS0uNzM1LjAzMS0xLjUwNS4wOTktMS43OC0uODEzLS40MTktMS40MDQuNzE4LTEuMTM5IDEuNDY1LTEuMzc4IDUuNDAxLTEuNzE4IDYuMTA3LTIuNzQ0IDUuNzIxLTguNjA2ek02NS45NCA5OC4wNjRjMS40MjktLjY3NSAyLjI1LTEuMjkzIDMuMTUzLTEuNDYgNS4wNjctLjkzNyA4Ljk1LS41OCA4Ljk0IDYuMjQ1LS4wMDcgMy41MTUuMDAyIDcuMDMxLS4wMDcgMTAuNTQ1LS4wMDIuOTg0LjA2MSAxLjk0Mi0xLjQwNiAyLjAyNy0xLjU0Ny4wOTItMS44ODctLjc5My0xLjg4LTIuMDA2LjAxOC0zLjM4Ny4xMS02Ljc3NC4xMDctMTAuMTYtLjAwMi0yLjYzLS41MzktNC45NTgtMy44ODQtNC45NS0yLjkzNC4wMDUtNS4wMTIgMi4xOTUtNS4wMjcgNS4yMTdhODk5LjU4IDg5OS41OCAwIDAwLjAwMyA5LjgxNGMuMDAzIDEuMTYyLjAyOCAyLjE4MS0xLjY1MiAyLjA4NS0xLjUxMy0uMDktMS4zMjctMS4xMS0xLjMyNy0yLjA0OS0uMDEtOC42LjAzMi0xNy4yMDktLjA0MS0yNS44MTUtLjAxMy0xLjUwOC41ODItMi40NDQgMS45Mi0yLjUwOCAxLjg4OC0uMDg3IDEuMDIzIDEuNTY0IDEuMDUxIDIuMzkyLjEyMyAzLjM3MS4wNSA2Ljc1LjA1IDEwLjYyM3pNODEuOTMgMTA1Ljc3NWMtLjE5MS02LjcxNSAyLjk5NC0xMC4zIDguNzYtMTAuMDkyIDIuODk0LjEwNiA1LjA2NSAxLjM5IDYuNDY2IDMuODkgMi40NzUgNC40MjIgMi4xNCA4Ljg0Ni0uNTM4IDEyLjk4Ny0xLjg0IDIuODQ0LTQuNjcgNC4xODUtOC4xMiAzLjQ1My0zLjQwMi0uNzItNi4wNjYtMy43ODMtNi41NDgtNy4zNTMtLjEyOC0uOTQ1LS4wMi0xLjkyNC0uMDItMi44ODV6bTEzLjMyLjE1N2MtLjE1Mi0xLjE3Mi0uMTI1LTIuODA2LS42MTMtNC4yNjQtLjY2Ny0yLTEuODgzLTMuNjEtNC4zNjQtMy43Mi0yLjUwMy0uMTA4LTMuNzUyIDEuMzU1LTQuNTg3IDMuMzgtMS4zMTEgMy4xNzktMS4yMjYgNi4zNzEuMTk0IDkuNDkzLjkxMiAyLjAxMSAyLjMyIDMuNDgzIDQuNzYgMy4wNzUgMi40MDMtLjQwMSAzLjgyMS0xLjk3NiA0LjMxMi00LjMxMy4yMjMtMS4wNTkuMTg3LTIuMTY4LjI5OC0zLjY1ek0xMDIuMjU3IDEwNi44MjdjMC0xLjIxMi0uMDIzLTIuNDIyLjAwNC0zLjYyOC4wNTYtMi4zMjUtLjY4NS00LjkwMSAyLjQ1LTYuMDg5IDMuNTktMS4zNTYgNy4xNDgtMi4zNzIgMTAuNzYyLS4yNzMgMS4zNTIuNzg2IDEuODUgMi4yMTQgMS44NjQgMy43My4wMzcgNC4yMzEtLjAxOSA4LjQ2NC4wMzggMTIuNjk1LjAyIDEuNDc2LS4zNjggMi4yMTQtMi4wMjcgMi4xNzQtMS44MTgtLjA0My0xLjQzNS0xLjI4My0xLjQyMy0yLjI3My4wNDMtMy4zOC4yNzgtNi43NTcuMjE0LTEwLjEzMi0uMDg0LTQuMjUtMi40MTYtNS45ODMtNi4zODktNC45NC0xLjY0OC40MzQtMi42NzggMS4yMzQtMi41OTcgMy4yNzQuMTYxIDMuOTgyLjAzNyA3Ljk3OC4wNTIgMTEuOTY3LjAwNCAxLjE1Ni4wMjEgMi4xOC0xLjY0NyAyLjA4My0xLjUyOC0uMDg4LTEuMjc4LTEuMTQ1LTEuMjktMi4wNjItLjAyOC0yLjE3Ni0uMDA4LTQuMzUzLS4wMTEtNi41MjZ6TTU4LjY4OSA5Ny40MDNjLS4yNS4yOTYtLjQ2Ljc2LS42OC43NjQtMy45NjQuMDU1LTIuODY0IDMuMDE0LTIuOTY2IDUuMjA5LS4wOTcgMi4wNDUgMCA0LjEtLjAyOSA2LjE1MS0uMDMgMi4wMzguMTQ3IDMuOTMyIDIuNjI3IDQuNDczLjcxMS4xNTQgMS4wMzUuNTY0Ljg4NyAxLjI3NC0uMTYzLjc4NC0uNzg4Ljc1My0xLjQwNy43NDUtMi44NS0uMDUtNC45NjMtMi4wNjUtNS4wNDctNS4wMTUtLjA4Ni0zLjAxNC4wMzEtNi4wMzUtLjA0LTkuMDQ2LS4wMzctMS40My43MDYtMy4yNTUtMS42LTMuODIyLS4yNTMtLjA2MS0uMzQzLS43NzgtLjUwOC0xLjE4NyAzLjA3Ni0uOTY1IDEuOC0zLjYxOCAyLjIyMi01LjYzMS4yLS45NTMgMS4xMDUtMS4yMTQgMS45Ni0xLjI5NS44NjUtLjA4Mi44NzIuNjE4LjkgMS4yMDMuMTE0IDIuMzItMS4wODcgNS40MjUgMy4xODQgNS4yNTYuMTQzLS4wMDUuMzEuNTYyLjQ5Ny45MnoiIGZpbGw9IiMzODZmOWYiLz48L2c+PC9zdmc+;" parent="1" vertex="1">
          <mxGeometry x="268" y="405" width="44" height="44" as="geometry" />
        </mxCell>
        <mxCell id="9SrCHgTtJ7KZjs1FLYit-4" style="edgeStyle=orthogonalEdgeStyle;rounded=0;orthogonalLoop=1;jettySize=auto;html=1;entryX=0.5;entryY=1;entryDx=0;entryDy=0;" edge="1" parent="1" source="pCmtLmL86r-4NyQDz8Vy-17" target="9SrCHgTtJ7KZjs1FLYit-3">
          <mxGeometry relative="1" as="geometry" />
        </mxCell>
        <mxCell id="9SrCHgTtJ7KZjs1FLYit-7" style="edgeStyle=orthogonalEdgeStyle;rounded=0;orthogonalLoop=1;jettySize=auto;html=1;entryX=0;entryY=0.7;entryDx=0;entryDy=0;" edge="1" parent="1" source="pCmtLmL86r-4NyQDz8Vy-17" target="9SrCHgTtJ7KZjs1FLYit-6">
          <mxGeometry relative="1" as="geometry" />
        </mxCell>
        <mxCell id="pCmtLmL86r-4NyQDz8Vy-17" value="" style="shape=image;verticalLabelPosition=bottom;labelBackgroundColor=default;verticalAlign=top;aspect=fixed;imageAspect=0;image=data:image/svg+xml,PHN2ZyB2aWV3Qm94PSIwIDAgMTI4IDEyOCIgeG1sbnM9Imh0dHA6Ly93d3cudzMub3JnLzIwMDAvc3ZnIj48ZyBjbGlwLXJ1bGU9ImV2ZW5vZGQiIGZpbGwtcnVsZT0iZXZlbm9kZCI+PHBhdGggZD0iTTUxLjgzNCAyMy4wMTdjMy43NTYgMCA3LjUxMi4wNTggMTEuMjYzLS4wNC45OTUtLjAyNiAyLjc4Ljc5NyAyLjctMS4yNzEtLjA2MS0xLjY4My0xLjYyMi0xLjA3NC0yLjU2OC0xLjA4OS00LjIzNy0uMDY3LTguNDg4LS4yMjgtMTIuNzA4LjAzNy0zLjAwMy4xODctMy44ODgtLjk1My0zLjUxMS0zLjcwNy4xMy0uOTUuMDA1LTEuOTM0LjAyNS0yLjkwMi4xMzItNi40NDYgMS42OS04LjY0IDcuOTQyLTEwLjIzIDYuODg4LTEuNzUgMTMuOTM3LTEuNjkyIDIwLjgwNi0uMTg0IDYuMTc1IDEuMzU2IDguNzQgNi4xNiA4LjQyOCAxMC42MDQtLjM4IDUuNDIzLS4wODYgMTAuODkzLS4wOTEgMTYuMzQzLS4wMDkgNi44NTMtMy41NSAxMC40OS0xMC40NTkgMTAuNTg1LTUuNjkuMDc4LTExLjM4Ny4xNC0xNy4wNzQtLjAxOC02Ljc3OC0uMTktMTEuNzUgNS40NC0xMS43ODQgMTEuODIgMCAuNDg0LjA4My45ODQtLjAxMyAxLjQ1MS0uNDg4IDIuMzQzIDEuNDYyIDYuMTMtMS4wMjIgNi44MjYtMy43OCAxLjA2Mi04LjIwNiAxLjA2Mi0xMS41NC0yLjMxMS0xLjEzLTEuMTQtMi4wODItMi40MTctMi41ODQtMy44OTMtMi42NzktNy44NjUtMy4xMDItMTUuODMtLjU4LTIzLjgxOCAxLjU3Mi00Ljk4NiA1Ljg0OC04LjA4NyAxMS4xNDUtOC4xNzYgMy44NzQtLjA2NSA3Ljc0OS0uMDEzIDExLjYyMy0uMDEzbC4wMDItLjAxNHptNi45MDItMTEuMTJjLS4xNjItMS45MDMtMS4xODUtMy4yOTItMy4yOTYtMy4zNS0yLjMwOS0uMDYtMy41MDIgMS4zMzYtMy41MDUgMy42MDgtLjAwMiAyLjEwNiAxLjE0NSAzLjQ1NSAzLjI0MSAzLjUxNiAyLjMwMy4wNjcgMy40MTgtMS4zNiAzLjU2LTMuNzc0eiIgZmlsbD0iIzM4NmY5ZiIvPjxwYXRoIGQ9Ik04MC44MjQgNjEuNTcyYy00LjI0IDAtOC40ODItLjAzNy0xMi43MjIuMDMtLjk1NS4wMTItMi41NTctLjU5Mi0yLjYwNyAxLjA0MS0uMDU2IDEuODUyIDEuNjYzIDEuMzcgMi43NTUgMS4zODEgNC4yNC4wNTMgOC40ODQuMDk4IDEyLjcyMy0uMDIgMi4xNzgtLjA2IDMuMDY3LjM1NyAzLjIzIDIuOTI1LjczNyAxMS42MjUtNC4zMDggMTIuNjMtMTMuNjEzIDE0Ljc0NS01LjMzOCAxLjIxMy0xMS4wNjEuNTctMTYuMzI1LTEuNzg4LTQuMzUzLTEuOTQ3LTcuMDI0LTQuNzUzLTYuNjg3LTEwLjAwNy4zMzQtNS4xODYuMzktMTAuNDM5LS4wMDktMTUuNjItLjQ4LTYuMjUzIDMuNDEtMTAuODUyIDEwLjk3NS0xMC44NTQgNS4wOS0uMDAxIDEwLjIxNC0uMzg5IDE1LjI2LjA3NSA3LjIxNS42NjIgMTIuODcyLTUuNTkyIDEzLjEyLTEyLjg2NC4wMS0uMjQxLS4wNTItLjUuMDEtLjcyNC42MzYtMi4yMzUtMS42MjYtNS41NTcgMS40LTYuNjg2IDQuNTczLTEuNzA1IDkuNzMuMDg3IDEyLjA2NiAzLjU1NyAyLjk0NSA0LjM2OSAzLjM0MyA5LjUxIDMuODE5IDE0LjUzLjUxNSA1LjQxMS0xLjAwMyAxMC41MDUtMy4yNzYgMTUuMzg2LTEuNTQ0IDMuMzEtNC4xNCA0LjkxLTcuNzU3IDQuOTE1LTQuMTIuMDAzLTguMjM5IDAtMTIuMzYgMC0uMDAyLS4wMDgtLjAwMi0uMDE1LS4wMDItLjAyMnptLTEuMTA0IDEwLjhjLS40NTMtMi4wNjYtMS4zODUtMy40NzYtMy43ODUtMy41MzUtMi40OTYtLjA2LTMuMTQgMS44MDctMy4xMjcgMy40NzQuMDE0IDEuNzcyLjUwOCAzLjk1MiAzLjIxIDMuNzQ4IDIuMjQ2LS4xNzIgMy4zNDEtMS41NjMgMy43MDItMy42ODd6IiBmaWxsPSIjZmZjZjQ2Ii8+PHBhdGggZD0iTTE0LjEyOSAxMTQuODQ5YzAgMi41ODIuMTE3IDUtLjA1NSA3LjM5Ny0uMDc0IDEuMDM0IDEuMDY2IDIuOTgtMS4xMDMgMi45NzgtMS45MTIgMC0yLjQwMy0xLjUyMi0yLjM0Mi0zLjM2MS4xMTctMy41MS4wMzQtNy4wMjcuMDM0LTEwLjU0di03Ljk5OGMwLTQuODIgMS4yOTMtNi40NTIgNS45MDMtNy40NSA0LjI4Ni0uOTMyIDcuNjU0LjUxMSA5LjM4NiA0LjI2MyAxLjczMiAzLjc1MyAxLjg2NiA3LjYyLjEzMyAxMS40MzgtMS43MDggMy43NjItNC44NTQgNS4xNjYtOC44ODQgNC4wNTEtLjkxOC0uMjUtMS44NDUtLjQ2Ny0zLjA3Mi0uNzc4em0wLTkuNDQ4YzAgMS4zMy4xOCAyLjY4Ni0uMDM3IDMuOTgtLjUwMiAyLjk5MSAxLjQwOCAzLjcyOCAzLjY2IDQuMjYgMi4yMjcuNTI2IDMuNzU0LS40MjEgNC42NDctMi4zODMgMS41MDEtMy4yOSAxLjc1My02LjY4My42MTMtMTAuMTYyLTEuMDEyLTMuMDkyLTMuMzQ5LTMuNDU0LTYuMDc3LTMuMDctMi42OTQuMzgzLTMuMDU5IDIuMjE1LTIuODI0IDQuNDguMS45NTUuMDE4IDEuOTMuMDE4IDIuODk1ek00My4xMTYgMTE0LjY4OWMtMS44NDUuNDgtMy40NDcuOTkyLTUuMDg3IDEuMy0zLjU5LjY3MS02LjI0OC0xLjMtNy4xODMtNC44OTQtMS4xNi00LjQ0OC0uMTc4LTguODc5LS4xNDgtMTMuMzE3LjAxMy0yLjAyMyAxLjg4NS0xLjIzNCAzLjE4LTIuMzE4IDAgNC43NS4wMTggOC44NS0uMDA2IDEyLjk0Ny0uMDEzIDIuMDU4LjUxOSAzLjc1IDIuNDY1IDQuODM1IDIuMTQ4IDEuMTk4IDMuOTEuMDU3IDUuNzgtLjcxMiAxLjM0LS41NTEgMS4xNzMtMS42NzYgMS4xNzUtMi43NDYuMDEtMy44NzItLjAwMS03Ljc0LjAxMi0xMS42MTIuMDAyLS45NTUtLjA5Ny0yLjEyMiAxLjMxMy0yLjA3NSAxLjI1Ny4wNDEgMS44MDQuNzg4IDEuNzgzIDIuMTU4LS4wOTEgNi40MDcuMDkgMTIuODIzLS4xNyAxOS4yMjEtLjE5NyA0LjgzOC0zLjYxIDcuNzkzLTguNTIgOC4wMS0uNzM1LjAzMS0xLjUwNS4wOTktMS43OC0uODEzLS40MTktMS40MDQuNzE4LTEuMTM5IDEuNDY1LTEuMzc4IDUuNDAxLTEuNzE4IDYuMTA3LTIuNzQ0IDUuNzIxLTguNjA2ek02NS45NCA5OC4wNjRjMS40MjktLjY3NSAyLjI1LTEuMjkzIDMuMTUzLTEuNDYgNS4wNjctLjkzNyA4Ljk1LS41OCA4Ljk0IDYuMjQ1LS4wMDcgMy41MTUuMDAyIDcuMDMxLS4wMDcgMTAuNTQ1LS4wMDIuOTg0LjA2MSAxLjk0Mi0xLjQwNiAyLjAyNy0xLjU0Ny4wOTItMS44ODctLjc5My0xLjg4LTIuMDA2LjAxOC0zLjM4Ny4xMS02Ljc3NC4xMDctMTAuMTYtLjAwMi0yLjYzLS41MzktNC45NTgtMy44ODQtNC45NS0yLjkzNC4wMDUtNS4wMTIgMi4xOTUtNS4wMjcgNS4yMTdhODk5LjU4IDg5OS41OCAwIDAwLjAwMyA5LjgxNGMuMDAzIDEuMTYyLjAyOCAyLjE4MS0xLjY1MiAyLjA4NS0xLjUxMy0uMDktMS4zMjctMS4xMS0xLjMyNy0yLjA0OS0uMDEtOC42LjAzMi0xNy4yMDktLjA0MS0yNS44MTUtLjAxMy0xLjUwOC41ODItMi40NDQgMS45Mi0yLjUwOCAxLjg4OC0uMDg3IDEuMDIzIDEuNTY0IDEuMDUxIDIuMzkyLjEyMyAzLjM3MS4wNSA2Ljc1LjA1IDEwLjYyM3pNODEuOTMgMTA1Ljc3NWMtLjE5MS02LjcxNSAyLjk5NC0xMC4zIDguNzYtMTAuMDkyIDIuODk0LjEwNiA1LjA2NSAxLjM5IDYuNDY2IDMuODkgMi40NzUgNC40MjIgMi4xNCA4Ljg0Ni0uNTM4IDEyLjk4Ny0xLjg0IDIuODQ0LTQuNjcgNC4xODUtOC4xMiAzLjQ1My0zLjQwMi0uNzItNi4wNjYtMy43ODMtNi41NDgtNy4zNTMtLjEyOC0uOTQ1LS4wMi0xLjkyNC0uMDItMi44ODV6bTEzLjMyLjE1N2MtLjE1Mi0xLjE3Mi0uMTI1LTIuODA2LS42MTMtNC4yNjQtLjY2Ny0yLTEuODgzLTMuNjEtNC4zNjQtMy43Mi0yLjUwMy0uMTA4LTMuNzUyIDEuMzU1LTQuNTg3IDMuMzgtMS4zMTEgMy4xNzktMS4yMjYgNi4zNzEuMTk0IDkuNDkzLjkxMiAyLjAxMSAyLjMyIDMuNDgzIDQuNzYgMy4wNzUgMi40MDMtLjQwMSAzLjgyMS0xLjk3NiA0LjMxMi00LjMxMy4yMjMtMS4wNTkuMTg3LTIuMTY4LjI5OC0zLjY1ek0xMDIuMjU3IDEwNi44MjdjMC0xLjIxMi0uMDIzLTIuNDIyLjAwNC0zLjYyOC4wNTYtMi4zMjUtLjY4NS00LjkwMSAyLjQ1LTYuMDg5IDMuNTktMS4zNTYgNy4xNDgtMi4zNzIgMTAuNzYyLS4yNzMgMS4zNTIuNzg2IDEuODUgMi4yMTQgMS44NjQgMy43My4wMzcgNC4yMzEtLjAxOSA4LjQ2NC4wMzggMTIuNjk1LjAyIDEuNDc2LS4zNjggMi4yMTQtMi4wMjcgMi4xNzQtMS44MTgtLjA0My0xLjQzNS0xLjI4My0xLjQyMy0yLjI3My4wNDMtMy4zOC4yNzgtNi43NTcuMjE0LTEwLjEzMi0uMDg0LTQuMjUtMi40MTYtNS45ODMtNi4zODktNC45NC0xLjY0OC40MzQtMi42NzggMS4yMzQtMi41OTcgMy4yNzQuMTYxIDMuOTgyLjAzNyA3Ljk3OC4wNTIgMTEuOTY3LjAwNCAxLjE1Ni4wMjEgMi4xOC0xLjY0NyAyLjA4My0xLjUyOC0uMDg4LTEuMjc4LTEuMTQ1LTEuMjktMi4wNjItLjAyOC0yLjE3Ni0uMDA4LTQuMzUzLS4wMTEtNi41MjZ6TTU4LjY4OSA5Ny40MDNjLS4yNS4yOTYtLjQ2Ljc2LS42OC43NjQtMy45NjQuMDU1LTIuODY0IDMuMDE0LTIuOTY2IDUuMjA5LS4wOTcgMi4wNDUgMCA0LjEtLjAyOSA2LjE1MS0uMDMgMi4wMzguMTQ3IDMuOTMyIDIuNjI3IDQuNDczLjcxMS4xNTQgMS4wMzUuNTY0Ljg4NyAxLjI3NC0uMTYzLjc4NC0uNzg4Ljc1My0xLjQwNy43NDUtMi44NS0uMDUtNC45NjMtMi4wNjUtNS4wNDctNS4wMTUtLjA4Ni0zLjAxNC4wMzEtNi4wMzUtLjA0LTkuMDQ2LS4wMzctMS40My43MDYtMy4yNTUtMS42LTMuODIyLS4yNTMtLjA2MS0uMzQzLS43NzgtLjUwOC0xLjE4NyAzLjA3Ni0uOTY1IDEuOC0zLjYxOCAyLjIyMi01LjYzMS4yLS45NTMgMS4xMDUtMS4yMTQgMS45Ni0xLjI5NS44NjUtLjA4Mi44NzIuNjE4LjkgMS4yMDMuMTE0IDIuMzItMS4wODcgNS40MjUgMy4xODQgNS4yNTYuMTQzLS4wMDUuMzEuNTYyLjQ5Ny45MnoiIGZpbGw9IiMzODZmOWYiLz48L2c+PC9zdmc+;" parent="1" vertex="1">
          <mxGeometry x="406" y="403" width="44" height="44" as="geometry" />
        </mxCell>
        <mxCell id="pCmtLmL86r-4NyQDz8Vy-28" style="edgeStyle=orthogonalEdgeStyle;rounded=0;orthogonalLoop=1;jettySize=auto;html=1;entryX=0.5;entryY=1;entryDx=0;entryDy=0;" parent="1" source="pCmtLmL86r-4NyQDz8Vy-27" target="pCmtLmL86r-4NyQDz8Vy-1" edge="1">
          <mxGeometry relative="1" as="geometry" />
        </mxCell>
        <mxCell id="pCmtLmL86r-4NyQDz8Vy-27" value="" style="shape=image;verticalLabelPosition=bottom;labelBackgroundColor=default;verticalAlign=top;aspect=fixed;imageAspect=0;image=data:image/svg+xml,PHN2ZyB2aWV3Qm94PSIwIDAgMTI4IDEyOCIgeG1sbnM9Imh0dHA6Ly93d3cudzMub3JnLzIwMDAvc3ZnIj48cGF0aCBkPSJNNjMuODEgMS4wMjZMNC41NTMgMjEuODhsOS4zNjMgNzcuNjM3IDQ5Ljk1NyAyNy40NTcgNTAuMjE0LTI3LjgyOCA5LjM2LTc3LjYzNXoiIGZpbGw9IiNCM0IzQjMiLz48cGF0aCBkPSJNMTE3LjUzNiAyNS45OThMNjMuNjcyIDcuNjI5djExMi43ODVsNDUuMTQxLTI0Ljk4M3oiIGZpbGw9IiNBNjEyMEQiLz48cGF0aCBkPSJNMTEuMjAxIDI2LjMyOWw4LjAyNiA2OS40MzQgNDQuNDQ0IDI0LjY1MVY3LjYyN3oiIGZpbGw9IiNERDFCMTYiLz48cGF0aCBkPSJNNzguNDk5IDY3LjY3bC0xNC44MjcgNi45MzRINDguMDQ0bC03LjM0NyAxOC4zNzQtMTMuNjYzLjI1NCAzNi42MzgtODEuNTA4TDc4LjQ5OSA2Ny42N3ptLTEuNDM0LTMuNDkxTDYzLjc3IDM3Ljg1OCA1Mi44NjQgNjMuNzI2aDEwLjgwN2wxMy4zOTQuNDUzeiIgZmlsbD0iI0YyRjJGMiIvPjxwYXRoIGQ9Ik02My42NzEgMTEuNzI0bC4wOTggMjYuMTM0IDEyLjM3NSAyNS44ODhINjMuNjk4bC0uMDI3IDEwLjg0MSAxNy4yMDkuMDE3IDguMDQyIDE4LjYzIDEzLjA3NC4yNDJ6IiBmaWxsPSIjQjNCM0IzIi8+PC9zdmc+;" parent="1" vertex="1">
          <mxGeometry x="710" y="405" width="60" height="60" as="geometry" />
        </mxCell>
        <mxCell id="pCmtLmL86r-4NyQDz8Vy-29" value="" style="shape=image;verticalLabelPosition=bottom;labelBackgroundColor=default;verticalAlign=top;aspect=fixed;imageAspect=0;image=data:image/svg+xml,PHN2ZyB2aWV3Qm94PSIwIDAgMTI4IDEyOCIgeG1sbnM9Imh0dHA6Ly93d3cudzMub3JnLzIwMDAvc3ZnIj48cGF0aCBkPSJNNDQuNDQgMTAwLjYzYy00LjIzLTMuMzMtOC43NC02LjUyLTExLjgzLTExLjAxLTYuNDktNy45Mi0xMS40OS0xNy4xLTE0LjktMjYuNzQtMi4wNy02LjI3LTIuNzctMTIuOTktNS40NC0xOS4wMi0yLjc4LTQuMzguNDgtOS4xNiA1LjI3LTEwLjU1IDIuMTMtLjQxIDUuODktMi40MyAxLjM2LS45OC00LjA2IDIuOTgtNC40NS0yLjcxLS4yOS0zLjA3IDIuODQtLjM4IDMuODktMi43IDIuOTItNC44LTMuMDUtMS45OSA3LjQtNC4xOCAyLjE0LTcuMTUtNS40OC01LjkxIDcuNjYtNy4wNSA0LjQyLS4zMy0uNzcgNS4xNiA5LjE4LS45NSA2Ljg3IDUuMDEgMi4zNSAyLjg2IDguOC42NSA4LjYzIDQuNjcgMy40Mi4yNCA0LjYgMy4xMSA3LjggMy4zMyAzLjMzIDEuNSA5LjM2IDIuNjkgMTAuNDkgNi40NC0zLjMgMi42MS0xMC45NS01LjQtMTEuMzEgMS44NCAxIDEwLjY5Ljc0IDIxLjcgNC42NSAzMS44OCAxLjg1IDYuMTYgNi4zMyAxMS4wMSAxMC4zOCAxNS44MSAzLjg4IDQuNyA5LjEyIDguMDEgMTQuNDggMTAuOCA0LjY5IDIuMjEgOS43NSAzLjY4IDE0Ljg3IDQuNiAyLjA3LTEuNTkgNS43NC03LjQ4IDguOTctNSAuMTYgMi44LTYuNDIgNS44NC0uMzEgNS41NCAzLjU5LTEuMDggNi4wOCAyLjc3IDkuMDQtLjcxIDIuNzIgMy4yMyAxMS4zMi0yLjA2IDkuMzggNC41My0yLjYyIDEuNjktNi40NC42Ny05LjA3IDMtNC4zMy0yLjE2LTcuNzcgMS45My0xMi41NiAxLjQyLTUuMzIuOTUtMTAuNzMgMS4zNC0xNi4xMyAxLjM0LTguODUtLjctMTcuODktLjk5LTI2LjMtNC4wNy00Ljc0LTEuMzgtOS4zNy00LjA4LTEzLjUzLTYuNzh6bTcuNDcgMy4yNGM0LjYzIDIgOS4xNiA0LjExIDE0LjIzIDQuNzUgOC4wNSAxLjEyIDE2LjM3IDIuODQgMjQuNDUgMS4yNy0zLjY2LTEuNjUtNy40NC42NC0xMS4wOC0xLjE4LTQuMzcuOTQtOS4wNi0uMjQtMTMuNS0uODItNS4wNS0yLjI1LTEwLjUtMy44LTE1LjIzLTYuNzItNS45MS0yLjE2IDMuMDYgMi43NyA0LjY1IDMuMTcgMy42OSAyLjEtNC4wNi0xLjA4LTUuMTYtMS45NS0zLjA5LTEuNzQtMy40OS0xLjM3LS4zMS4zOS42NC4zNyAxLjI4Ljc3IDEuOTUgMS4wOXptLTguODEtNi4yM2M0LjQ5IDEuNjYtLjAyLTMuMTYtMi4wNy0yLjg4LS45MS0xLjU4LTMuNDgtMi41OC0xLjY3LTMuNDMtMy4yNiAxLjEzLTMuNDItNC4zLTQuOTUtMy41My0zLjQ1LTEuMDktMS4zNC00Ljk1LTUuNDUtNy4zMi0uMzctMi41LTQuMDgtNC42Ni01LjI2LTguNDMtLjUyLTEuOTMtNC4xOS03LjQ2LTEuOTQtMi4zMSAxLjkyIDQuOTYgNS4yOSA5LjIxIDguMSAxMy40NSAyLjE4IDQuMDQgNC43NiA4LjI2IDguNzIgMTAuNzggMS4zNCAxLjMgMi42MyAzLjI3IDQuNTIgMy42N3pNMzAuMTcgODMuNDVjLjE2LS42OC44MiAxLjQ2IDAgMHptMTguMyAxNi4xOGMxLS40NC0xLjQzLS41NiAwIDB6bTIuNDQuODljLS4yNS0xLjIzLTEuMTEuNjkgMCAwem0zLjA1IDEuMjdjMS40NS0xLjM4LTIuMjQtLjg3IDAgMHptNS4yMiAyLjkxYy44OS0xLjMtMi44Mi0uNDkgMCAwem0tMTAuMDMtNi45OWMyLjI1LTEuNDYtMi45MS0uMDIgMCAwem0yLjI5IDEuMTRjLS4wNy0uNzctLjgyLjM0IDAgMHptMTEuNDMgNy4xM2MxLjg0IDEuMTYgMTAuNzMgMi41NCA1LjE2LjQ4LS45My4yLTEwLjMzLTIuNjYtNS4xNi0uNDh6TTQ0LjcyIDkxLjg1Yy0uMTgtLjc3LTIuODUtLjg1IDAgMHptNS4zMiAzLjFjMS4zOS0uOTYtMi44Ny0uNzQgMCAwem00LjQ4IDIuNzVjMS45OC0uNzUtMy4yMy0uNzUgMCAwem0tMTEuOTctOC4yMWMyLjE2IDEuNjUgOC43LjIxIDMuMy0uOTktMi40NS0xLjMxLTcuOTktMi4yLTQuMjIuNzlsLjkyLjJ6bTE1IDkuMTZjLjktMS41My0zLjc3LS44OCAwIDB6bS00LjU2LTMuNjNjNS4yNyAxLjQ5LTQuNDMtMy4zNC0xLjMtLjU1bC43LjMyLjYuMjN6bTkuMTQgNS4yOGM0Ljk5LjA1LTQuNTEtLjY4IDAgMHptLTIxLjUtMTMuN2MtLjE5LS45My0xLjIzLjA4IDAgMHptMjkuOTQgMTguNDRjLjE0LTEuNjgtMS42MiAxLjI1IDAgMHpNNDkuMTUgOTEuODJjLS4zLS44OC0xLjU2LS4wNCAwIDB6bS04LjA0LTUuOGMyLjg2LS4xNy0zLjkzLTEuMjYgMCAwem0tOS41NC02LjE2Yy0uMzYtMS4zOC0zLjEyLTIuNDcgMCAwek01Ni42IDk1Ljc0Yy0uNTItLjYtLjI1LjEzIDAgMHptMTUuNTggOS41NmMtLjA1LS45MS0uODUuMzUgMCAwek01NS4yMiA5NC4zMmMuMjgtMS4xOC0yLjQ0LS4zNiAwIDB6bS0xMS42LTcuMzZjMi4xMy0uMjMtMy40Mi0xLjQ0IDAgMHptMTkuNjMgMTIuMmMzLjMyLTEuMzItMy4yNC0uNjQgMCAwem0tMTAuMjEtNi45M2MzLjgzLjQ5LTQuNTYtMi42MS0uODQtLjI4bC44NC4yOHptMTMuMzEgOC4xOWMzLjU4LTIuMTQgMi40IDUuMDEgNi4wNy42IDMuNjItMi42NC0zLjEzIDMuMjcgMS4zMy40NyAzLjIzLTIuMTYgNy45OSAxLjAyIDExIDIuMDYgMi4xNi0uMTEgNC4yNyAxLjg3IDYuNDkuNjcgNC4yNy0xLjE1LTguMzYtMS43MS01LjA1LTMuNzUtMy45MSAxLjE0LTYuOC0xLjM2LTguNzItMy44Ni00LjM5LTEuMDEtOS40Ni0zLjI1LTExLjY1LTcuMTQtLjg5LTEuNDYgMS4yOS4yMS0uNzctMi4xOC0yLjY0LTIuMzUtMy45Ni01LjAyLTUuNzMtNy44OC0yLjEyLTEuMTMtMi4zNy00LjQ2LTIuNTgtLjExLjAyLTIuNzQtMi41Ni00LjU5LTMuMTktMy44Mi0uMDEtMi42NCAyLjc2LTEuMzIuODItMy4yNy0uNDItMi43NC0xLjc5LTUuNTktMi4yLTguNjgtLjY0LTEuNDktLjA5LTQuNjgtMi4xOS0xLjMxLS43NiAzLjU3LS4yNS00LjM4Ljk0LTEuNzYgMS41Ni0yLjY3LS41Ni0yLjM2LS42NS0xLjk5IDEuMDItMi4yNi42NC01LjQ2LS4yNy00LjI0LjU0LTIuMzkuODYtOC44LS44MS03LjY2IDEuMDEtMi41IDEuOTItMTEuNDQtMi40Ny04LjAzLTEuNzguMDMtNC44NS42NC02LjMxIDEuMzcgNC41NiAyLjUxLS40Ni45MS0yLjMyLjUxLS4yNCAyLjMzLTIuMDggMS4zMi00LjM4IDEuMzQgMy42Ny40NS0xLjc5IDMuNzUtMy44OSAyLjQ3LTIuNzQgMS4zMSAyLjM2IDQuNTcuMDUgNS41OC4yOCAxLjUyLTQuMTktLjU1LTMuODQgMi45Ni0yLjY1LTEuMTItLjM2IDQuMTYuOTYgMi4zOCA0LjUxIDEuMjIgMy4xOCA0LjAxIDMuMjkgNi42NS0uNzQgMS41NC0zLjYzLTMuNjItLjY0LTMuMzgtMi4zNi0zLjgzLTIuNjEtMS4zOC00LjU2LjM5LS40NS4xMyA0Ljk5IDIuNTMgMS41NyAzLjcyIDMuMDEuNDcgMy4xIDMuMSAzLjcxIDQuNzYgMS44MSAxLjg4IDEuNDQtMi4wOCAzLjYuMTgtMS4zNy0yLjAyLTcuMjUtNS42OC0yLjUyLTQuNTEtLjAzLTIuMDMtLjg2LTMuNjcuNi0zLjYzIDEuNDQtMi42LTEuNTEgNi40MiAxLjczIDMuMTEuOS0uMzkgMS4xMi0yLjYgMi43My4yMSAyLjM0IDIuMy44NSAzLjk3LTIuNDYgMS44Ni41OSAyLjAxIDQuNDIgMi43MiAzLjcgNS44Ni43NiAyLjc2IDEuODMgMS43NCAyLjc2IDEuNTguNzMgMi42OCAxLjE0LjcxIDEuMTgtLjU3IDMuMzQuNzIgMi41NiAyLjY5IDMuNiA0LjA3IDIuMyAxLjA0LTMuMjktNy4wNC42Ni0yLjQzIDQuMTYgMy43NSAxLjU2IDUuMzItMi4xNyA0LjcyIDIuMzYtLjE5IDMuMTIgMy4xOSA2LjA3IDMuMDcgMi42OSAxLjI4IDQuNTIgNi4yLS4xMiA0LjE1LTEuNjEtMS40NS03LjMxLTMuMjQtMi42NS0uNDggNC4zIDEuOTkgNy43MSAzLjE4IDExLjg2IDUuNjggMi45NiAyLjEyIDQuMjUgNC41NCA1LjM3IDUuMDItMi40OSAxLjE5LTcuNTEtLjk1LTMuNzgtMS42MS0yLjMzLS40Mi00Ljk0LTEuNi0yLjcxIDEuMyAxLjg5IDEuNTggNi43MSAxLjQyIDcuNTggMS41OS0uNzMgMS42MS0xLjk5IDEuNzQuMDMgMS44Ni0yLjI1IDEuMjIuNzIgMS40MS45MyAyLjF6bS00LjYtMTNjLTEuMzctMS40My0xLjcyLTQuMTEtLjI0LTEuNzguNzUuMyAyLjQzIDQuMzguMjQgMS43OHptMTQuOTkgOS41MmMuODUtLjA2LjAyLjY1IDAgMHpNNTkuNTkgODMuOTFjLS4wNi0yLjE3LjQ5IDEuNjcgMCAwek01OC4xIDgxLjljLTEuNzMtMy4zMiAyLjE3Ljk1IDAgMHpNNDAuMDQgNjkuNDRjMS4wMS0uMjcuNSAxLjczIDAgMHptMTQuMzcgNy43OWMuNjItMi4zMy43MyAxLjk2IDAgMHptLTEwLjE1LTcuMDZjLS43MS0xLjI5IDEuNSAxLjIxIDAgMHptOC43MSAyLjc5Yy0xLjYzLTMuNjUgMS4xNi0yIC4zNi42bC0uMzYtLjZ6TTM3Ljk1IDYyLjk1Yy0uNzMtMS4yLTEuOTMtNC43Mi0xLjU1LTUuNzkuMzUgMS43NSAzLjcyIDcuNTMgMS42NSAyLjM5LTIuMjgtNC4zIDIuNzMgMS40IDMuMjUgMi40Ny4yNCAxLjA3LTEuNDEtLjI5LS4yOSAyLjIxLTIuMDQtMi44NS0xLjIgMS41OC0zLjA2LTEuMjh6bS00LjY0LTMuMmMuMTktMi43OSAxLjA2IDEuOTEgMCAwem0yLjA4LjcyYzEtMi4xMSAxLjY5IDIuOTMgMCAwem0tNS4wMi0zLjg5Yy0xLjczLTEuNzItMi45OC0zLjMuMDgtMS4wNyAxLjE4LjA1LTIuNjItMy42LjI4LTEuMTYgMy4wNi41NiAxLjUxIDUuMDEtLjM2IDIuMjN6bTIuNjQtLjA3YzEtLjk5LjUzLjk4IDAgMHptMS42Mi41MmMtMS41Mi0yLjg1IDEuODUgMS4yIDAgMHptLTMuMjItMy4wOGMtNS4wMi00LjQ3IDYuMzEgMi4zNC44Mi44M2wtLjgyLS44M3ptMTQuMzkgOC4zNmMtMi4xOC0xLjMtLjU4LTkuMTguMTYtMy43OSAyLjExLS42OC0uMTIgMi43OCAxLjQ2IDIuNzUtLjI0IDIuMTgtLjk1IDIuOTctMS42MiAxLjA0em01LjMzIDMuMTVjLjIxLTIuMzguNDUgMS42MiAwIDB6bS0uOTMtLjkyYy4yNC0xLjAxLjAzIDEuMiAwIDB6TTMyLjM5IDUyLjQ4Yy0zLjIzLTQuNDUgOS4zOCA0LjUxIDIuMDcgMS4xMy0uNzctLjIxLTEuNjktLjI4LTIuMDctMS4xM3ptMTAuMjYgNS40M2MtLjMxLTMuNzUuNjguNjIgMCAwem03Ljc4IDVjLjYtMi4xNC4wNSAxLjQxIDAgMHpNMzIuODkgNTAuNzhjMS45Mi0uNDEgNy45NSAzLjM3IDIuNDEgMS4wOC0uNjItLjY5LTEuOTMtLjM4LTIuNDEtMS4wOHptMTYuNDcgOC4yMWMuMi0zLjg0IDEuMTUtMi4yOS4wMS41NWwtLjAxLS41NXptLTE1LjA1LTkuNTVjLjc4LTEuMTUtMi4wOC01LjE4LjQxLTEuNDUgMS4wOC44NSAzLjExIDEuNDMgMS4zMSAxLjc5IDIuODQgMi41LS42OC42OC0xLjcyLS4zNHptMTQuMjQgOC4zNWMuNTQtNC4zNy40NyAyLjU2IDAgMHpNMzIuNjggNDUuNDFjLjYtLjI2LjMyLjc5IDAgMHptMy43MSAyLjIxYy45Ni0yLjAxIDEuNzcgMi4yMyAwIDB6bTEwLjQ3IDUuODJjMC0uNzcuMiAxLjEyIDAgMHptLS42LTEuMzRjLTEuNDUtMy41OSAxLjM1IDEuOSAwIDB6bS0uODktMi4zNWMtLjI1LTEuNDguODMgMS44NiAwIDB6bTEuNDUtMi4zNmMtMS0xLjc2IDEuMjYtNy43NSAxLjUxLTQuMDMtMS4wNSAyLjg5LS4zIDQuNTEuNDMuNjMgMS4zNi0zLjA2LS4yOSA2LjAyLTEuOTQgMy40em0xLjQ5LTguOTFjLjQ0LS41My4xLjY1IDAgMHpNNDUuODIgODcuNmMtLjU5LS41Mi4wNy4zMyAwIDB6bTUuMTMgMi42YzIuODYuNzQgMi44NC0uNDQuMjYtLjc5LTEuMzktMS4yOS01Ljc3LTIuNjYtMS44NS0uMTYuMjcuNjUgMS4wOS42MyAxLjU5Ljk1em0tMTAuMTQtNi43NGMxLjU3IDEuMTggNS45MyAzLjMyIDIuMjQuNDUgMS4yNC0xLjQ0LTIuMzgtMi4yMS0xLjE4LTMuMTgtMy4wNi0xLjg3LTIuNDEtMS43LS4yNy0xLjY0LTMuNjctMS42NC41My0xLjUyLjMzLTIuMzYtMS40Mi0uMjgtNy4wMy0yLjUtMy43My4xOC0zLjM2LTEuNzEtLjguNjQtMS44Mi4zOS0zLjQ0LS45NCAzLjA2IDIuNjItLjU0IDEuNzMgMS45NyAxLjU2IDUuMyA0IC44MyAxLjY1LS41Ny44NSAzLjIxIDIuMTQgNC4xNCAyLjc4em01LjM3IDMuMDljNi41MyAyLjEtMy4yLTIuNTggMCAwem0yNy41IDE2LjY1Yy4wOC0xLjMtLjkgMS4xMSAwIDB6bTIuODIgMS4xOWMxLjUxLTEuNDYuMDYgMi4zMyAyLjUtLjM2LjAzLTEuOTItLjA3LTMuMDYtMi44LS43Mi0uNzUuNDItMS4wOSAyLjE5LjMgMS4wOHpNMzEuNjUgNzYuMjJjLS40Ny0xLjgyLTMuMjUtMS44MSAwIDB6bTMuMDEgMS45OGMtMS4xMi0xLjg2LTQtMS42OCAwIDB6bTE3LjE3IDEwLjM1YzEuNjggMS40OSA3LjcgMS4wOSAyLjAzLjE4LS44My0xLjI0LTUuMzItLjk0LTIuMDMtLjE4em0yMy42IDE0LjU3YzIuNTctMi4xNi0yLjUuOTcgMCAwem01LjM2IDMuNjljLjAyLS42OS0xLjExLjMgMCAwem0uMDEtLjk3YzIuODYtMy4wMy0yLjc3LjE4IDAgMHpNMjQuMjIgNzAuMDFjLTIuNDMtMy40Ny0xLjUxLTUuMDMtMy44Ni03Ljg3LS40NS0yLjE3LTQuMDMtNy4wOS0xLjg1LTEuODggMS45OSAzLjA1IDIuNTggNy43NyA1LjcxIDkuNzV6bTU1LjY4IDM0Ljg3YzUuMjYtMy40LTIuMTUtMS40OCAwIDB6bTQuMDEgMS41N2MyLjY0LTIuMjYtMS42Ni0uNDcgMCAwek0zMC43NSA3Mi4zOGMuNzYtMS4xMi0xLjk0LS4xNCAwIDB6bTUyLjMzIDMyLjk5YzIuNTUtMS42NC0uNTktMS4zOS0uNDYuMTVsLjQ2LS4xNXpNNDguNSA4My41OGMtLjA5LTEuMTEtMS4zNS4wOSAwIDB6bTIuMTQgMS4yM2MtLjY5LTEuMzgtMS4wNS4yMSAwIDB6bTM2LjUzIDIxLjY3YzMuMjctMi4zNi0xLjk4LS40NS0uNjguNDVsLjY4LS40NXptLTEuMjYtLjZjMi42Ny0yLjIzLTIuOC45OSAwIDB6bTYuMzkgNC4yNWMxLjc5LTEuMTktMi4xNy0uMzggMCAwek0zMi4zOSA3MS41N2MyLjM5LjU0IDkuNTYgNS44OSA1LjMzLjM3LTIuMTctLjY0LS44Ny01Ljk0LTMuMDgtNSAxLjQ4IDIuNDggMS4yMiAzLjUzLTEuOSAxLjk3LTMuOTEtMS45MS0yLjIuOTQtMS40MyAxLjczLTEuMDQuMjUgMS4zOS45MSAxLjA4Ljkzem0tMTAuOS04LjYxYy40My0xLjc3LTMuOTUtOS43NS0yLjA3LTQgLjY4IDEuMjEuNjEgMy40OSAyLjA3IDR6TTQxLjUgNzUuM2MtMS4yMy0xLjAzLS4wNi0uMTUgMCAwem0zLjAzLjcxYzAtMS44OC0zLjM1LS43NyAwIDB6bTI2LjMgMTYuNTdjLS41LTEuMjgtMS45OC0uMDIgMCAwem0xLjI2LjkzYy0uMTgtLjcyLS43Mi4xNCAwIDB6bTEwLjQzIDYuNTZjMS0uNzQtMS4yNS0uMDkgMCAwek0yNi45MyA2NC4zNWMyLjg3LTEuMTEtMy4wNy0uNzkgMCAwem00MS41OSAyNi4yYy0uMDQtMS44Ni0xLjgzLjQ2IDAgMHpNMjUuOCA2MS43MWMxLjg0LS42Mi0xLjcxLS40MSAwIDB6bTUuMzQgMi41OWMtLjAzLS42MS0uNTYuMjMgMCAwem02NS4yMiAzOS45OWMyLjM3LS40OCA3Ljc3IDEuMjEgOC42NC0uNjMtMi44OC0uMDctOS45NS0yLjAzLTEwLjI4LjQ2bC42My4xIDEuMDEuMDd6TTMyLjg0IDY0LjczYy4wNS0xLjg4LTEuNDYtLjA3IDAgMHptLTE0LjA1LTkuNzVjLS42NC0zLjU4LTIuNDMtLjU0IDAgMHptMy4zNS44NGMuMDQtMS4xNS0zLjA3LTEuMDMgMCAwem0xLjkxLjk0Yy0uNTUtLjQ0LS40My41NyAwIDB6bTEyLjA2IDcuNzNjLjU3LS41Mi0xLjM1LS4zOCAwIDB6bS0xMy4zMy05Ljg1Yy0uMzMtMi43MS0zLjg4LS40IDAgMHptLTYuODctNC40NmMtLjEtMS4yNS0uNjcuNDcgMCAwem0xLjAyLS43N2MtLjE3LTEuNDgtLjg4LjE5IDAgMHptNS42NSAzLjM3YzIuMzktLjk0LTQuMzUtMS45NC0uNDktLjE4bC40OS4xOHptNzUuNTkgNDYuNjljMS41My0xLjQtMS45NC0uNDMgMCAwem05LjEzIDQuNzRjLjYxLTEuODEtMS41NC4yMyAwIDB6TTIzLjE1IDQ5LjgyYy4yNi0xLjc1LTEuODkuMzUgMCAwem0tOC4wMy01LjM4Yy0uNDMtMi40Ny0uMzctNi44MiAzLjc2LTUuMzUtNS41MSAxLjEgMy44MiA2Ljg1IDIuNjQgMi4zMSAyLjMyLjExIDQuNTMtMS4zNyAzLjMyLjg4IDQuNTctLjUgNy43My00LjQ2IDEyLjE0LTMuOTEgMy40NC0uNDYgNy4xOS0uOCAxMC44OS0yLjE4IDMuMDQtLjIyIDUuOTctMy41IDQuMzEtNS40NC00LjE1LS4zNS04LjUuMTctMTMuMDggMS4wOC01LjA4IDEuMDYtOS43IDMuMDYtMTQuODMgMy45My01IC42NyAxIDEuODUtLjQzIDIuMTEtMi42MS45IDMuMTEgMS41Mi0uMzQgMi40Ny0yLjEzLS40MS00LjM1LTEuMTQtMy40NC0zLjM4LTQuNzkuNjItOSAyLjYxLTUuMjEgNy40OGguMjd6bTExLjU0LTUuODhjMS4xMi00LjE0IDYuMDEgMy40IDEuODQuNTUtLjUtLjM4LTEuMzItLjY4LTEuODQtLjU1em0uMjItMi4wMWMxLjYyLTEuMi44Ni42OCAwIDB6bTIuMDYuMDRjLjE1LTEuOSA0LjcxIDEuMDEuNzUuNjhsLS43NS0uNjh6bTIuODEtMS4xNGMxLjAzLTEuMi4zIDEuMDcgMCAwem0uNzItLjQ4YzEuNzEtMi4wNiA5LjY5LTEuMzEgMy44NS0uMi0xLjU2LTEuMTgtMi43Ni43LTMuODUuMnptMTAuNDItMS42Yy0uMjYtNS42MiA1LjE4IDEuOTkgMCAwem0yLjk2LS4wMmMxLjA4LTIuODMgNC4yLTEuMTQuNS0uNTcuMDguMy0uMTEgMS40Ni0uNS41N3pNMjEuOTkgNDguMzdjMy4yMy0xLjk4LTMuNDMtMS43MiAwIDB6bTIuMzkuNjZjMS4xMy0xLjItMi40Ni0uNDkgMCAwem0tNy4wNC00Ljk5YzEuODUtMS40Mi0yLjE4LS41NCAwIDB6bTk1LjM1IDU5LjY1Yy4wNS0xLjY1LTEuNDEuNzQgMCAwek0xMDMgOTcuMDhjLjI4LTEuOS0xLjI0LjE2IDAgMHptMTIuMzYgNy4yNWMyLjU4LjAxIDcuODItLjggMi4yLS44LS44OC4xMy01LjEzLjExLTIuMi44ek0yNi40OCA0Ny44N2MyLjA5LS4xNCAzLjI3LTIuMy0uNDEtMi4xOC01LjY5LS41OSA1LjAyIDEuOTUtLjczIDEuMjItLjc3LjUxIDEuMDkgMS4xIDEuMTQuOTZ6bTEuODQuOTNjLS4yMi0xLjM0LS42NS43MSAwIDB6bTIuMTgtNS44MmMuOS0xLjEyLTEuMjYtLjMgMCAwem0tNi45NS0xMS42YzMuNzMtMS4yNyA4LjgyLTIuNjkgMTAuNTguNjItMS43OS0yLjE1LS43Mi00LjI4Ljk3LTEuMTIgMi4zOSAzLjE5IDMuNTktMS40NSAyLjAzLTIuNTIgMS43NyAyLjIgMy43OSAzLjI0IDEuMTkuMTQgMi44My0zLjQtNS42Ni40NS03LjU5LjQxLS45Mi40MS05LjU4IDIuMi03LjE4IDIuNDd6bTIuMTktNC4xOGMyLjEzLTEuNiA3LjM1Ljk2IDQtMS41OS0uMzMtLjMtNy4zNSAxLjkzLTQgMS41OXptNy43NS4zMmMyLjQ5LjA2LTEuMDctMy4zNCAxLjg5LTEuOC0uNDktMS41OS0zLjQ1LTEuODktNC45LTIuNTItLjgyIDEuNDUgMS42NiA0LjM0IDMuMDEgNC4zMnptLTYuMzktNy4wNGMuODYtMS4xNi0xLjUxLjYgMCAwem0zLjE2Ljc2YzQuMDEtLjUzLTEuMDItMS43Mi0uODEtLjA0bC44MS4wNHptLTUuOTEtNC42MmMtMi44Mi0zLjY5IDUuMzEuNjIgMi40NC0zLjI0LTIuNDEtMS45Mi00LjczIDIuMTYtMi40NCAzLjI0em0zNi4yMSAxOS41YzEuMjktMi4yOS01LjM0LTMuMDktLjg3LS44MS40Mi4xNC4zMi45Ny44Ny44MXoiIGZpbGw9IiMwMTAxMDEiLz48L3N2Zz4=;" parent="1" vertex="1">
          <mxGeometry x="710" y="104" width="60" height="60" as="geometry" />
        </mxCell>
        <mxCell id="9SrCHgTtJ7KZjs1FLYit-1" value="" style="shape=datastore;whiteSpace=wrap;html=1;fillColor=#dae8fc;gradientColor=#7ea6e0;strokeColor=#6c8ebf;" vertex="1" parent="1">
          <mxGeometry x="232" y="198" width="90" height="110" as="geometry" />
        </mxCell>
        <mxCell id="pCmtLmL86r-4NyQDz8Vy-14" value="" style="shape=image;verticalLabelPosition=bottom;labelBackgroundColor=default;verticalAlign=top;aspect=fixed;imageAspect=0;image=data:image/svg+xml,PHN2ZyB2aWV3Qm94PSIwIDAgMTI4IDEyOCIgeG1sbnM9Imh0dHA6Ly93d3cudzMub3JnLzIwMDAvc3ZnIj48cGF0aCBkPSJNODUuOTg4IDc2LjA3NWMuNjMyLTUuMjYyLjQ0My02LjAzNCA0LjM2Mi01LjE4MmwuOTk1LjA4OGMzLjAxNC4xMzcgNi45NTctLjQ4NSA5LjI3Mi0xLjU2MSA0Ljk4Ni0yLjMxMyA3Ljk0Mi02LjE3NyAzLjAyNi01LjE2Mi0xMS4yMTUgMi4zMTMtMTEuOTg2LTEuNDgzLTExLjk4Ni0xLjQ4M0MxMDMuNSA0NS4yMDQgMTA4LjQ1MSAyMi45IDEwNC4xNzggMTcuNDQgOTIuNTI0IDIuNTQ4IDcyLjM1IDkuNTkgNzIuMDEyIDkuNzczbC0uMTA4LjAyMWMtMi4yMTYtLjQ2MS00LjY5NS0uNzM1LTcuNDgxLS43OC01LjA3NS0uMDgzLTguOTI2IDEuMzMxLTExLjg0NyAzLjU0NiAwIDAtMzUuOTg5LTE0LjgyNy0zNC4zMTUgMTguNjQ2LjM1NiA3LjEyMSAxMC4yMDcgNTMuODgyIDIxLjk1NiAzOS43NTggNC4yOTQtNS4xNjQgOC40NDQtOS41MzEgOC40NDQtOS41MzEgMi4wNjEgMS4zNjkgNC41MjggMi4wNjcgNy4xMTYgMS44MTZsLjItLjE3Yy0uMDYyLjY0MS0uMDM1IDEuMjY4LjA4MSAyLjAxLTMuMDI3IDMuMzgzLTIuMTM3IDMuOTc3LTguMTg5IDUuMjIyLTYuMTIyIDEuMjYyLTIuNTI1IDMuNTA4LS4xNzggNC4wOTUgMi44NDguNzEzIDkuNDMzIDEuNzIyIDEzLjg4NC00LjUwOWwtLjE3Ny43MTFjMS4xODguOTUgMS4xMDcgNi44MjcgMS4yNzUgMTEuMDI2LjE2OCA0LjE5OS40NSA4LjExNyAxLjMwNiAxMC40MjkuODU2IDIuMzEgMS44NjYgOC4yNjEgOS44MTkgNi41NTcgNi42NDYtMS40MjYgMTEuNzI3LTMuNDc2IDEyLjE5LTIyLjU0NSIvPjxwYXRoIGQ9Ik03MS4yMDggMTAyLjc3Yy0zLjUxOCAwLTUuODA4LTEuMzYtNy4yLTIuNjc0LTIuMS0xLjk4MS0yLjkzMy00LjUzNC0zLjQzLTYuMDU5bC0uMjE1LS42MzdjLTEuMDAyLTIuNzA1LTEuMzQxLTYuNTk5LTEuNTQyLTExLjYxM2ExOTkuMjUgMTk5LjI1IDAgMDEtLjA3NS0yLjM1MmMtLjAxNy0uNjAxLS4wMzgtMS4zNTUtLjA2OC0yLjE0NmExNS4xNTcgMTUuMTU3IDAgMDEtMy45OTcgMS4yNjRjLTIuNDguNDI0LTUuMTQ2LjI4Ni03LjkyNi0uNDA5LTEuOTYxLS40OS0zLjk5OS0xLjUwNi01LjE2LTMuMDc2LTMuMzg1IDIuOTY1LTYuNjE0IDIuNTYyLTguMzczIDEuOTc2LTMuMTAzLTEuMDM1LTUuODgtMy45NDItOC40OTEtOC44OS0xLjg1OS0zLjUyMy0zLjY1OC04LjExNS01LjM0Ny0xMy42NDYtMi45NC05LjYzMy00LjgwOC0xOS43NzktNC45NzQtMjMuMTA5LS41MjItMTAuNDI3IDIuMjg0LTE3Ljg4MyA4LjM0LTIyLjE2IDkuNTU1LTYuNzQ5IDI0LjAzLTIuNzgxIDI5LjMwNy0uOTc5IDMuNTQ1LTIuMTM3IDcuNzE2LTMuMTc4IDEyLjQzLTMuMTAyIDIuNTMyLjA0MSA0Ljk0Mi4yNjQgNy4xODEuNjYyIDIuMzM1LS43MzQgNi45NDktMS43ODggMTIuMjMtMS43MjMgOS43My4xMTYgMTcuNzkzIDMuOTA4IDIzLjMxNiAxMC45NjYgMy45NDEgNS4wMzYgMS45OTMgMTUuNjEuNDggMjEuNDY2LTIuMTI3IDguMjM1LTUuODU2IDE2Ljk5Ni0xMC40MzYgMjQuNjIyIDEuMjQ0LjAwOSAzLjA0NS0uMTQxIDUuNjA3LS42NjkgNS4wNTQtMS4wNDQgNi41MzEgMS42NjYgNi45MzIgMi44NzkgMS42MDcgNC44NjctNS4zNzggOC41NDQtNy41NTcgOS41NTUtMi43OTIgMS4yOTctNy4zNDMgMi4wODYtMTEuMDcxIDEuOTE1bC0uMTYzLS4wMTEtLjk3OS0uMDg2LS4wOTcuODE2LS4wOTMuNzk5Yy0uMjUgOS42NjQtMS42MzEgMTUuNzg0LTQuNDcyIDE5LjgyOS0yLjk3NyA0LjIzOS03LjExNiA1LjQyOC0xMC43NjEgNi4yMDlhMTYuMTQ2IDE2LjE0NiAwIDAxLTMuMzk2LjM4M3ptLTcuNDAyLTM1LjE3NGMyLjI3MSAxLjgxNyAyLjQ3IDUuMjM2IDIuNjQ3IDExLjYyNi4wMjIuNzk3LjA0MyAxLjU1Mi4wNzEgMi4yNTcuMDg2IDIuMTM0LjI4NyA3LjEzMiAxLjA2OSA5LjI0NC4xMTEuMjk4LjIxLjYwMi4zMTQuOTIyLjg3MiAyLjY3MiAxLjMxIDQuMDExIDUuMDgxIDMuMjAzIDMuMTY3LS42NzggNC43OTQtMS4yODcgNi4wNjgtMy4xMDEgMS44NTItMi42MzggMi44ODgtNy45NDEgMy4wNzgtMTUuNzY3bDMuODUyLjA5NC0zLjgyNi0uNDU5LjExMi0uOTU1Yy4zNjctMy4xNDguNjMxLTUuNDI0IDIuNzM2LTYuOTI4IDEuNjg4LTEuMjA3IDMuNjEzLTEuMDkgNS4xNDYtLjgxNC0xLjY4NC0xLjI3MS0yLjE1LTIuNzY1LTIuMjc0LTMuMzc3bC0uMzIxLTEuNTgyLjkwMi0xLjM0YzUuMi03LjcxNiA5LjQ4OS0xNy4xOTkgMTEuNzY3LTI2LjAxOCAyLjM0LTkuMDYyIDEuNjI2LTEzLjg3NS45MTMtMTQuNzg1LTkuNDQ2LTEyLjA3MS0yNS44MjktNy4wODgtMjcuNTM5LTYuNTIxbC0uMjkuMTU2LTEuNDUuMjcxLS43NDMtLjE1NGMtMi4wNDctLjQyNS00LjMyMS0uNjYtNi43Ni0uNy0zLjgzMS0uMDY0LTYuOTIxLjg0MS05LjQ1NSAyLjc2NGwtMS43NTggMS4zMzMtMi4wNDEtLjg0MWMtNC4zNTgtMS43ODItMTcuMTYyLTUuMzY1LTIzLjkxOC0uNTgtMy43NSAyLjY1Ni01LjQ1OCA3Ljg2MS01LjA3OCAxNS40Ny4xMjUgMi41MTIgMS44MzMgMTIuMDIxIDQuNjQ3IDIxLjI0NSAzLjg5MSAxMi43NDYgNy40MjcgMTYuOTc5IDguOTAzIDE3LjQ3Mi4yNTcuMDg3LjkyNi0uNDMzIDEuNTkxLTEuMjMxIDQuMzI2LTUuMjAzIDguNDQtOS41NCA4LjYxMy05LjcyM2wyLjIzMS0yLjM0NyAyLjY5NyAxLjc5MmMxLjA4Ny43MjMgMi4yODYgMS4xMzIgMy41MTggMS4yMDlsNi40MzMtNS40ODYtLjkzMiA5LjUxYy0uMDIxLjIxNC0uMDMxLjUwNC4wNTMgMS4wNDRsLjI4IDEuODAzLTEuMjEzIDEuMzU4LS4xNC4xNTcgMy41MzQgMS42MzIgMS40ODItMS44NTN6Ii8+PHBhdGggZD0iTTEwMy42NDYgNjQuMjU4Yy0xMS4yMTYgMi4zMTMtMTEuOTg3LTEuNDg0LTExLjk4Ny0xLjQ4NCAxMS44NDItMTcuNTcxIDE2Ljc5Mi0zOS44NzYgMTIuNTItNDUuMzM1QzkyLjUyNCAyLjU0NyA3Mi4zNSA5LjU5IDcyLjAxMyA5Ljc3M2wtLjEwOS4wMTljLTIuMjE2LS40NTktNC42OTUtLjczMy03LjQ4Mi0uNzc4LTUuMDc1LS4wODMtOC45MjUgMS4zMy0xMS44NDYgMy41NDUgMCAwLTM1Ljk5LTE0LjgyNi0zNC4zMTYgMTguNjQ3LjM1NiA3LjEyMSAxMC4yMDcgNTMuODgyIDIxLjk1NiAzOS43NTggNC4yOTQtNS4xNjQgOC40NDMtOS41MzEgOC40NDMtOS41MzEgMi4wNjEgMS4zNjkgNC41MjggMi4wNjcgNy4xMTUgMS44MTZsLjIwMS0uMTdjLS4wNjIuNjQxLS4wMzQgMS4yNjguMDggMi4wMS0zLjAyNiAzLjM4My0yLjEzOCAzLjk3Ny04LjE4OCA1LjIyMi02LjEyMyAxLjI2Mi0yLjUyNiAzLjUwOC0uMTc3IDQuMDk1IDIuODQ3LjcxMyA5LjQzMyAxLjcyMiAxMy44ODMtNC41MDlsLS4xNzguNzExYzEuMTg2Ljk1IDIuMDE5IDYuMTc5IDEuODc5IDEwLjkxOXMtLjIzMyA3Ljk5NC43MDIgMTAuNTM2Yy45MzUgMi41NDEgMS44NjYgOC4yNjEgOS44MiA2LjU1NyA2LjY0Ni0xLjQyNSAxMC4wOS01LjExNiAxMC41Ny0xMS4yNzIuMzQtNC4zNzcgMS4xMDktMy43MyAxLjE1OC03LjY0NGwuNjE4LTEuODUzYy43MTEtNS45MzQuMTEzLTcuODQ4IDQuMjA4LTYuOTU3bC45OTUuMDg3YzMuMDE0LjEzOCA2Ljk1OC0uNDg1IDkuMjczLTEuNTYxIDQuOTg2LTIuMzE0IDcuOTQzLTYuMTc3IDMuMDI4LTUuMTYyeiIgZmlsbD0iIzMzNjc5MSIvPjxwYXRoIGQ9Ik03MS42MSAxMDAuMzk0Yy02LjYzMS4wMDEtOC43MzEtNS4yNS05LjU5MS03LjM5Ny0xLjI1Ny0zLjE0Ni0xLjUyOS0xNS4zNTgtMS4yNDktMjUuMzczYTEuMjg2IDEuMjg2IDAgMDEyLjU3LjA3MmMtLjMyMyAxMS41NTEuMTM2IDIyLjAxOCAxLjA2NiAyNC4zNDYgMS40NTMgMy42MzIgMy42NTYgNi44MDkgOS44ODcgNS40NzUgNS45MTUtMS4yNjkgOC4xMy0zLjUxMiA5LjExNi05LjIzLjc1OC00LjM4OSAyLjI1NC0xNi44NzQgMi40MzgtMTkuMzM4YTEuMjg1IDEuMjg1IDAgMDEyLjU2My4xOTFjLS4xOTIgMi41NjQtMS42ODIgMTUuMDI2LTIuNDY5IDE5LjU4NC0xLjE2NSA2Ljc1NS00LjE3NiA5LjgxOS0xMS4xMSAxMS4zMDZhMTUuNDYyIDE1LjQ2MiAwIDAxLTMuMjIxLjM2NHpNMzUuNjU5IDc0Ljc0OWE1LjM0MyA1LjM0MyAwIDAxLTEuNzA0LS4yODFjLTQuMzA3LTEuNDM3LTguNDA5LTguNDUxLTEyLjE5My0yMC44NDktMi44OC05LjQzOC00LjcwNS0xOS4yODgtNC44NjUtMjIuNDg5LS40NzUtOS40OSAxLjk3LTE2LjIwNSA3LjI2NS0xOS45NTcgMTAuNDc2LTcuNDIzIDI4LjEtLjM1NCAyOC44NDUtLjA1YTEuMjg1IDEuMjg1IDAgMDEtLjk3MiAyLjM3OXYuMDAxYy0uMTctLjA3LTE3LjA3LTYuODQtMjYuMzkyLS4yMjktNC41MjggMy4yMTEtNi42MDcgOS4xNzUtNi4xOCAxNy43MjkuMTM1IDIuNjk2IDEuODQgMTIuMzExIDQuNzU3IDIxLjg2NyAzLjM3OCAxMS4wNjcgNy4yMjMgMTguMDUyIDEwLjU0OCAxOS4xNi41MjEuMTc1IDIuMTA5LjcwNCA0LjM4MS0yLjAyNiA0LjI3Mi01LjE0IDguMTk3LTkuMjQyIDguMjM2LTkuMjgzYTEuMjg2IDEuMjg2IDAgMDExLjg1NiAxLjc3OGMtLjAzOS4wNC0zLjkwNCA0LjA4MS04LjExNiA5LjE0OC0xLjk5NSAyLjM5OC0zLjkwOCAzLjEwMi01LjQ2NiAzLjEwMnptNTUuOTItMTAuODI5YTEuMjg0IDEuMjg0IDAgMDEtMS4wNjUtMi4wMDRjMTEuOTcxLTE3Ljc2NCAxNi4xNzMtMzkuMjI3IDEyLjU3NC00My44MjUtNC41My01Ljc4OC0xMC45MjctOC44MTItMTkuMDEyLTguOTg1LTUuOTg3LS4xMy0xMC43NDYgMS4zOTktMTEuNTIzIDEuNjY2bC0uMTk1LjA3OWMtLjc4Mi4yNDYtMS4zODItLjE4My0xLjYwOC0uNjg0YTEuMjkgMS4yOSAwIDAxLjUwOC0xLjYzMWwuMzQ2LS4xNDItLjAxNy4wMDUuMDE4LS4wMDZjMS4zMjEtLjQ4MyA2LjE1Mi0xLjkzMyAxMi4xMzctMS44NjQgOC45NDcuMDk0IDE2LjMzNyAzLjU0NSAyMS4zNzEgOS45NzcgMi4zODIgMy4wNDQgMi4zODcgMTAuMDU3LjAxNSAxOS4yNC0yLjQxOCA5LjM2Mi02Ljk2OCAxOS40MjUtMTIuNDgyIDI3LjYwN2ExLjI4MiAxLjI4MiAwIDAxLTEuMDY3LjU2N3ptLjYxMSA4LjIyM2MtMi4wNDQgMC0zLjg3Ni0uMjg3LTQuOTczLS45NDUtMS4xMjgtLjY3NS0xLjM0My0xLjU5NC0xLjM3MS0yLjA4MS0uMzA4LTUuNDA0IDIuNjc0LTYuMzQ1IDQuMTk1LTYuNzc0LS4yMTItLjMyLS41MTQtLjY5Ny0uODI1LTEuMDg2LS44ODctMS4xMDgtMi4xMDEtMi42MjYtMy4wMzctNC44OTYtLjE0Ni0uMzU0LS42MDYtMS4xNzktMS4xMzgtMi4xMzMtMi44ODMtNS4xNjktOC44ODEtMTUuOTI2LTUuMDI4LTIxLjQzNSAxLjc4NC0yLjU0OSA1LjMzNC0zLjU1MiAxMC41NjYtMi45OTItMS41MzktNC42ODktOC44NjktMTkuMzU4LTI2LjI1OS0xOS42NDMtNS4yMzEtLjA4OC05LjUyMSAxLjUyMS0xMi43NDQgNC43NzUtNy4yMTcgNy4yODktNi45NTUgMjAuNDc3LTYuOTUyIDIwLjYwOGExLjI4NCAxLjI4NCAwIDExLTIuNTY5LjA2N2MtLjAxNi0uNTg1LS4yODYtMTQuNDI0IDcuNjk1LTIyLjQ4NCAzLjczNS0zLjc3MiA4LjY1MS01LjYzNCAxNC42MTItNS41MzdDNzUuNDkgNy43NyA4Mi42NTEgMTMuNDI2IDg2LjcgMTguMTRjNC40MTIgNS4xMzYgNi41NzYgMTAuODAyIDYuNzU0IDEyLjY5Mi4xMzMgMS40MDYtLjg3NiAxLjY4OC0xLjA4IDEuNzI5bC0uNDYzLjAxMWMtNS4xMzUtLjgyMi04LjQyOS0uMjUyLTkuNzkxIDEuNjk1LTIuOTMxIDQuMTg4IDIuNzQzIDE0LjM2MyA1LjE2NiAxOC43MDkuNjE5IDEuMTA4IDEuMDY1IDEuOTA5IDEuMjY5IDIuNDA0Ljc5NiAxLjkzIDEuODM0IDMuMjI3IDIuNjY4IDQuMjY5LjczMy45MTcgMS4zNjkgMS43MTEgMS41OTcgMi42NDUuMTA1LjE4NSAxLjYwMyAyLjM5OSAxMC40ODguNTY1IDIuMjI3LS40NTkgMy41NjItLjA2NiAzLjk3IDEuMTY4LjgwMyAyLjQyOS0zLjcwMiA1LjI2MS02LjE5NiA2LjQyLTIuMjM4IDEuMDM5LTUuODA1IDEuNjk2LTguODkyIDEuNjk2em0tMy43ODEtMy4yMzhjLjI4MS4yODUgMS42OTEuNzc1IDQuNjEyLjY1IDIuNTk2LS4xMTIgNS4zMzUtLjY3NyA2Ljk3OS0xLjQzOSAyLjEwMi0uOTc2IDMuNTA0LTIuMDY3IDQuMjMxLTIuODEybC0uNDA0LjA3NGMtNS42ODEgMS4xNzMtOS42OTkgMS4wMTctMTEuOTQyLS40NjVhNC44MjEgNC44MjEgMCAwMS0uNDM1LS4zMjNjLS4yNDMuMDk2LS40NjguMTU5LS42MjguMjA0LTEuMjczLjM1Ny0yLjU4OS43MjYtMi40MTMgNC4xMTF6bS0zNi42OTcgNy4xNzljLTEuNDExIDAtMi44OTYtLjE5MS00LjQxMy0uNTcyLTEuNTcxLS4zOTMtNC4yMjEtMS41NzYtNC4xOC0zLjUxOS4wNDUtMi4xODEgMy4yMTYtMi44MzUgNC40MTEtMy4wODEgNC4zMTItLjg4OCA0LjU5My0xLjI0NCA1Ljk0MS0yLjk1NS4zOTMtLjQ5OS44ODItMS4xMiAxLjU0OC0xLjg2NS45OS0xLjEwNyAyLjA3Mi0xLjY2OSAzLjIxNi0xLjY2OS43OTYgMCAxLjQ1LjI3MSAxLjg4MS40NDkgMS4zNzYuNTcgMi41MjQgMS45NDggMi45OTYgMy41OTguNDI2IDEuNDg4LjIyMyAyLjkyLS41NzIgNC4wMzItMi42MDggMy42NTMtNi4zNTIgNS41ODItMTAuODI4IDUuNTgyem0tNS44MTctMy45OGMuMzg4LjI5OSAxLjE2NC42OTkgMi4wMjcuOTE2IDEuMzE0LjMyOCAyLjU4OC40OTUgMy43OS40OTUgMy42NjIgMCA2LjYwMS0xLjUxNyA4LjczNy00LjUwNi40NDUtLjYyNC4zMTItMS40MTUuMTkzLTEuODMyLS4yNS0uODcyLS44Ny0xLjY2NS0xLjUwOS0xLjkzMS0uMzQ3LS4xNDQtLjYzNC0uMjU0LS44OTgtLjI1NC0uMTQyIDAtLjU3MyAwLTEuMy44MTMtLjYxNC42ODYtMS4wNTUgMS4yNDYtMS40NDYgMS43NDEtMS42NzggMi4xMzEtMi40NDcgMi44NTQtNy40NDEgMy44ODMtMS4yMTguMjUyLTEuODQzLjUwNi0yLjE1My42NzV6bTkuODgyLTUuOTI4YTEuMjg2IDEuMjg2IDAgMDEtMS4yNjktMS4wOSA2LjAyNiA2LjAyNiAwIDAxLS4wNjQtLjY0NGMtMy4yNzQtLjA2Mi02LjQzMi0xLjQ2Ni04LjgyOS0zLjk2OC0zLjAzMS0zLjE2My00LjQxMS03LjU0NS0zLjc4NS0xMi4wMjIuNjgtNC44NjIuNDI2LTkuMTU0LjI4OS0xMS40NmEyNS41MTQgMjUuNTE0IDAgMDEtLjA2My0xLjQyNWMuMDAyLS40MDYuMDEtMS40ODUgMy42MTUtMy4zMTIgMS4yODItLjY1IDMuODUzLTEuNzg0IDYuNjYxLTIuMDc1IDQuNjU0LS40OCA3LjcyMSAxLjU5MiA4LjYzOSA1LjgzNiAyLjQ3OCAxMS40Ni4xOTYgMTYuNTI5LTEuNDcgMjAuMjMtLjMxMS42ODgtLjYwNCAxLjM0LS44MzggMS45N2wtLjIwNy41NTdjLS44OCAyLjM2LTEuNjQxIDQuMzk5LTEuNDA3IDUuOTIzYTEuMjg3IDEuMjg3IDAgMDEtMS4wNzUgMS40NjZsLS4xOTcuMDE0ek00NC42MzQgMzUuOTIybC4wNTEuOTE4Yy4xNDIgMi4zOTUuNDA2IDYuODUzLS4zMSAxMS45NjktLjUxNiAzLjY5Mi42MTIgNy4yOTcgMy4wOTUgOS44ODggMS45NjIgMi4wNDggNC41NDYgMy4xNzggNy4yMDEgMy4xNzhoLjA1NWMuMjk4LTEuMjUzLjc5MS0yLjU3NSAxLjMyMi00bC4yMDYtLjU1M2MuMjY1LS43MTIuNTc1LTEuNDAxLjkwMy0yLjEzIDEuNjA0LTMuNTY0IDMuNi04IDEuMzAxLTE4LjYzMy0uNDU2LTIuMTA1LTEuNTYtMy4zMjQtMy4zNzUtMy43MjYtMy43MjgtLjgyNC05LjI4MyAxLjk4LTEwLjQ0OSAzLjA4OXptNy43NTYtLjU0NWMtLjA2NC40NTQuODMzIDEuNjY3IDIuMDAxIDEuODI5IDEuMTY3LjE2MyAyLjE2Ni0uNzg1IDIuMjI5LTEuMjM5LjA2My0uNDU1LS44MzMtLjk1NS0yLjAwMi0xLjExOC0xLjE2Ny0uMTYzLTIuMTY2LjA3My0yLjIyOC41Mjh6bTIuMjcgMi4yNzdsLS4zMjgtLjAyM2MtLjcyNS0uMTAxLTEuNDU4LS41NTgtMS45NTktMS4yMjMtLjE3Ni0uMjMzLS40NjQtLjY4Ny0uNDA3LTEuMDkxLjA4Mi0uNTkzLjgwNC0uOTQ3IDEuOTMzLS45NDcuMjUzIDAgLjUxNS4wMTkuNzguMDU1LjYxNi4wODYgMS4xODkuMjY0IDEuNjEyLjUuNzMzLjQxLjc4Ny44NjYuNzU0IDEuMTAzLS4wOTEuNjUzLTEuMTMzIDEuNjI2LTIuMzg1IDEuNjI2em0tMS44NDQtMi4yMDFjLjAzNy4yOC43MyAxLjIwNSAxLjYzNCAxLjMzbC4yMDkuMDE1Yy44MzQgMCAxLjQ1OC0uNjU3IDEuNTMxLS44NzItLjA3Ny0uMTQ2LS42MTMtLjUxMS0xLjYzMS0uNjUxYTQuNzIgNC43MiAwIDAwLS42NjEtLjA0OGMtLjY1Mi0uMDAxLTEuMDAxLjE0Ni0xLjA4Mi4yMjZ6bTM1LjEyMS0xLjAwM2MuMDYzLjQ1NS0uODMyIDEuNjY4LTIuMDAxIDEuODMtMS4xNjguMTYyLTIuMTY3LS43ODUtMi4yMzEtMS4yNC0uMDYyLS40NTQuODM0LS45NTUgMi4wMDItMS4xMTcgMS4xNjgtLjE2NCAyLjE2Ni4wNzQgMi4yMy41Mjd6bS0yLjI3IDIuMDYyYy0xLjEyNSAwLTIuMDk0LS44NzUtMi4xNzQtMS40NDItLjA5Mi0uNjgxIDEuMDI5LTEuMTk5IDIuMTg1LTEuMzU5LjI1NC0uMDM2LjUwNi0uMDU0Ljc0OS0uMDU0Ljk5NyAwIDEuNjU3LjI5MyAxLjcyMy43NjQuMDQzLjMwNi0uMTkxLjc3Ny0uNTk1IDEuMjAxLS4yNjYuMjgtLjgyNi43NjUtMS41ODguODdsLS4zLjAyem0uNzU5LTIuNDI3Yy0uMjIzIDAtLjQ1NS4wMTctLjY5LjA0OS0xLjE2Mi4xNjEtMS44NTMuNjI4LTEuODIuODc4LjAzOS4yNzQuNzggMS4wNzIgMS43NSAxLjA3MmwuMjM5LS4wMTdjLjYzNC0uMDg5IDEuMTEtLjUwMiAxLjMzNy0uNzQxLjM1Ni0uMzc1LjQ5OC0uNzI3LjQ4MS0uODQ4LS4wMjEtLjE1Ny0uNDQ5LS4zOTMtMS4yOTctLjM5M3ptMy4xOTQgMjYuNDUzYTEuMjg1IDEuMjg1IDAgMDEtMS4wNjctMmMyLjczNi00LjA4NyAyLjIzNS04LjI1NiAxLjc1MS0xMi4yODYtLjIwNy0xLjcxOC0uNDItMy40OTMtLjM2NC01LjE5OC4wNTYtMS43NTMuMjc4LTMuMTk5LjQ5NC00LjU5OS4yNTUtMS42NTcuNDk2LTMuMjI0LjM5Ni01LjA4MmExLjI4NiAxLjI4NiAwIDAxMi41NjctLjEzOGMuMTE0IDIuMTI0LS4xNTkgMy44OTYtLjQyMyA1LjYxMS0uMjA0IDEuMzIzLS40MTUgMi42OTEtLjQ2NiA0LjI5LS4wNDkgMS41MDkuMTQ0IDMuMTEyLjM0OCA0LjgwOC41MTYgNC4yODcgMS4wOTkgOS4xNDYtMi4xNjcgMTQuMDIzLS4yNDguMzctLjY1NS41NzEtMS4wNjkuNTcxeiIgZmlsbD0iI2ZmZiIvPjxwYXRoIGQ9Ik0yLjgzNSAxMDMuMTg0YTI2LjIzIDI2LjIzIDAgMDE0LjM0My0uMzM4YzIuMjM1IDAgMy44NzQuNTIgNC45MTQgMS40NTYuOTYyLjgzMiAxLjUzNCAyLjEwNiAxLjUzNCAzLjY2NyAwIDEuNTg2LS40NjkgMi44MzQtMS4zNTMgMy43NDQtMS4xOTYgMS4yNzQtMy4xNDYgMS45MjQtNS4zNTYgMS45MjQtLjY3NiAwLTEuMy0uMDI2LTEuODE5LS4xNTZ2Ny4wMjFIMi44MzV2LTE3LjMxOHptMi4yNjMgOC40NWMuNDk0LjEzIDEuMTE4LjE4MiAxLjg3Mi4xODIgMi43MjkgMCA0LjM5NC0xLjMyNiA0LjM5NC0zLjc0NCAwLTIuMzE0LTEuNjM4LTMuNDMyLTQuMTM0LTMuNDMyLS45ODggMC0xLjc0Mi4wNzgtMi4xMzIuMTgydjYuODEyem0yMi4yMyAyLjQ3YzAgNC42NTQtMy4yMjUgNi42ODMtNi4yNjcgNi42ODMtMy40MDYgMC02LjAzMi0yLjQ5Ni02LjAzMi02LjQ3NSAwLTQuMjEyIDIuNzU2LTYuNjgyIDYuMjQtNi42ODIgMy42MTUtLjAwMSA2LjA1OSAyLjYyNiA2LjA1OSA2LjQ3NHptLTkuOTg0LjEzYzAgMi43NTYgMS41ODYgNC44MzYgMy44MjIgNC44MzYgMi4xODQgMCAzLjgyMS0yLjA1NCAzLjgyMS00Ljg4OCAwLTIuMTMyLTEuMDY1LTQuODM2LTMuNzctNC44MzZzLTMuODczIDIuNDk2LTMuODczIDQuODg4em0xMi41NTcgMy45MjZjLjY3Ni40NDIgMS44NzIuOTEgMy4wMTYuOTEgMS42NjQgMCAyLjQ0NC0uODMyIDIuNDQ0LTEuODcyIDAtMS4wOTItLjY0OS0xLjY5LTIuMzQtMi4zMTQtMi4yNjItLjgwNi0zLjMyOC0yLjA1NC0zLjMyOC0zLjU2MiAwLTIuMDI4IDEuNjM4LTMuNjkyIDQuMzQyLTMuNjkyIDEuMjc0IDAgMi4zOTMuMzY0IDMuMDk1Ljc4bC0uNTcyIDEuNjY0YTQuODk3IDQuODk3IDAgMDAtMi41NzQtLjcyOGMtMS4zNTIgMC0yLjEwNi43OC0yLjEwNiAxLjcxNiAwIDEuMDQuNzU1IDEuNTA4IDIuMzkzIDIuMTMyIDIuMTg0LjgzMiAzLjMwMiAxLjkyNCAzLjMwMiAzLjc5NiAwIDIuMjEtMS43MTYgMy43Ny00LjcwNiAzLjc3LTEuMzc4IDAtMi42NTItLjMzOC0zLjUzNi0uODU4bC41Ny0xLjc0MnptMTMuMzY1LTEzLjg1OXYzLjYxNGgzLjI3NXYxLjc0MmgtMy4yNzV2Ni43ODZjMCAxLjU2LjQ0MSAyLjQ0NCAxLjcxNiAyLjQ0NGE1LjA5IDUuMDkgMCAwMDEuMzI2LS4xNTZsLjEwNCAxLjcxNmMtLjQ0MS4xODItMS4xNDQuMzEyLTIuMDI3LjMxMi0xLjA2NiAwLTEuOTI1LS4zMzgtMi40NzEtLjk2Mi0uNjQ5LS42NzYtLjg4NC0xLjc5NC0uODg0LTMuMjc2di02Ljg2NGgtMS45NXYtMS43NDJoMS45NXYtMy4wMTZsMi4yMzYtLjU5OHptMTYuNTM2IDMuNjE1Yy0uMDUzLjkxLS4xMDQgMS45MjQtLjEwNCAzLjQ1OHY3LjMwNmMwIDIuODg2LS41NzIgNC42NTQtMS43OTQgNS43NDctMS4yMjIgMS4xNDQtMi45OSAxLjUwOC00LjU3NiAxLjUwOC0xLjUwOCAwLTMuMTcyLS4zNjQtNC4xODctMS4wNGwuNTcyLTEuNzQyYy44MzIuNTIgMi4xMzIuOTg4IDMuNjkyLjk4OCAyLjM0IDAgNC4wNTYtMS4yMjIgNC4wNTYtNC4zOTR2LTEuNDA0aC0uMDUyYy0uNzAyIDEuMTctMi4wNTQgMi4xMDYtNC4wMDQgMi4xMDYtMy4xMiAwLTUuMzU2LTIuNjUyLTUuMzU2LTYuMTM3IDAtNC4yNjQgMi43ODItNi42ODIgNS42NjgtNi42ODIgMi4xODUgMCAzLjM4MSAxLjE0NCAzLjkyNyAyLjE4NGguMDUybC4xMDQtMS44OThoMi4wMDJ6bS0yLjM2NiA0Ljk2NmMwLS4zOS0uMDI2LS43MjgtLjEzLTEuMDQtLjQxNi0xLjMyNi0xLjUzNC0yLjQxOC0zLjE5OC0yLjQxOC0yLjE4NSAwLTMuNzQ0IDEuODQ2LTMuNzQ0IDQuNzU4IDAgMi40NyAxLjI0OCA0LjUyNCAzLjcxOCA0LjUyNCAxLjQwNCAwIDIuNjc4LS44ODQgMy4xNzItMi4zNC4xMy0uMzkuMTgzLS44MzIuMTgzLTEuMjIydi0yLjI2MnptNS45MDEtMS4wNGMwLTEuNDgyLS4wMjYtMi43NTYtLjEwNC0zLjkyNmgyLjAwM2wuMDc3IDIuNDdoLjEwNGMuNTcyLTEuNjkgMS45NS0yLjc1NiAzLjQ4NC0yLjc1Ni4yNiAwIC40NDEuMDI2LjY0OS4wNzh2Mi4xNThhMy40MjggMy40MjggMCAwMC0uNzc5LS4wNzhjLTEuNjEyIDAtMi43NTcgMS4yMjItMy4wNjggMi45MzhhNi40NCA2LjQ0IDAgMDAtLjEwNCAxLjA2NnY2LjcwOGgtMi4yNjJ2LTguNjU4em05LjUxNyAyLjc4MmMuMDUyIDMuMDk0IDIuMDI3IDQuMzY4IDQuMzE1IDQuMzY4IDEuNjM5IDAgMi42MjYtLjI4NiAzLjQ4NC0uNjVsLjM5IDEuNjM4Yy0uODA2LjM2NC0yLjE4NC43OC00LjE4Ni43OC0zLjg3NCAwLTYuMTg4LTIuNTQ4LTYuMTg4LTYuMzQ0IDAtMy43OTYgMi4yMzYtNi43ODcgNS45MDItNi43ODcgNC4xMDggMCA1LjIgMy42MTQgNS4yIDUuOTI4IDAgLjQ2OC0uMDUyLjgzMi0uMDc4IDEuMDY2aC04LjgzOXptNi43MDgtMS42MzhjLjAyNS0xLjQ1Ni0uNTk5LTMuNzE4LTMuMTcyLTMuNzE4LTIuMzE0IDAtMy4zMjggMi4xMzItMy41MTEgMy43MThoNi42ODN6Ii8+PHBhdGggZD0iTTg0LjM3MSAxMTcuNzQ0YTguMDE2IDguMDE2IDAgMDA0LjA1NiAxLjE0NGMyLjMxNCAwIDMuNjY2LTEuMjIyIDMuNjY2LTIuOTkgMC0xLjYzOC0uOTM2LTIuNTc0LTMuMzAyLTMuNDg0LTIuODYtMS4wMTQtNC42MjgtMi40OTYtNC42MjgtNC45NjYgMC0yLjczIDIuMjYyLTQuNzU4IDUuNjY4LTQuNzU4IDEuNzk0IDAgMy4wOTQuNDE2IDMuODc0Ljg1OGwtLjYyNCAxLjg0NmE2Ljk4IDYuOTggMCAwMC0zLjMyOC0uODMyYy0yLjM5MiAwLTMuMzAyIDEuNDMtMy4zMDIgMi42MjYgMCAxLjYzOCAxLjA2NSAyLjQ0NCAzLjQ4NCAzLjM4IDIuOTY0IDEuMTQ1IDQuNDcyIDIuNTc0IDQuNDcyIDUuMTQ4IDAgMi43MDQtMi4wMDIgNS4wNDQtNi4xMzYgNS4wNDQtMS42OSAwLTMuNTM2LS40OTQtNC40NzMtMS4xMThsLjU3My0xLjg5OHptMjcuNTg2IDUuMzNhOTQuODQ2IDk0Ljg0NiAwIDAxLTYuNzA4LTIuMDI4Yy0uMzY0LS4xMy0uNzI4LS4yNi0xLjA2Ni0uMjYtNC4xNi0uMTU2LTcuNzIyLTMuMjI0LTcuNzIyLTguODY2IDAtNS42MTYgMy40MzItOS4yMyA4LjE2NC05LjIzIDQuNzU4IDAgNy44NTMgMy42OTIgNy44NTMgOC44NjYgMCA0LjQ5OC0yLjA4IDcuMzg0LTQuOTkyIDguMzk4di4xMDRjMS43NDIuNDQyIDMuNjQuODU4IDUuMTIyIDEuMTE4bC0uNjUxIDEuODk4em0tMS44NzItMTEuNDE0YzAtMy41MS0xLjgxOS03LjEyNS01LjUzOC03LjEyNS0zLjgyMiAwLTUuNjk0IDMuNTM2LTUuNjY4IDcuMzMzLS4wMjYgMy43MTggMi4wMjggNy4wNzIgNS41NjQgNy4wNzIgMy42MTUgMCA1LjY0Mi0zLjI3NiA1LjY0Mi03LjI4em01LjMyOS04LjY4NGgyLjI2M3YxNS42MjZoNy40ODh2MS44OThoLTkuNzUxdi0xNy41MjR6IiBmaWxsPSIjMzM2NzkxIi8+PC9zdmc+;" parent="1" vertex="1">
          <mxGeometry x="246.5" y="240" width="61" height="61" as="geometry" />
        </mxCell>
        <mxCell id="9SrCHgTtJ7KZjs1FLYit-2" style="edgeStyle=orthogonalEdgeStyle;rounded=0;orthogonalLoop=1;jettySize=auto;html=1;entryX=1.002;entryY=0.658;entryDx=0;entryDy=0;entryPerimeter=0;" edge="1" parent="1" source="pCmtLmL86r-4NyQDz8Vy-17" target="9SrCHgTtJ7KZjs1FLYit-1">
          <mxGeometry relative="1" as="geometry" />
        </mxCell>
        <mxCell id="9SrCHgTtJ7KZjs1FLYit-3" value="" style="shape=datastore;whiteSpace=wrap;html=1;fillColor=#d5e8d4;gradientColor=#97d077;strokeColor=#82b366;" vertex="1" parent="1">
          <mxGeometry x="383" y="198" width="90" height="110" as="geometry" />
        </mxCell>
        <mxCell id="pCmtLmL86r-4NyQDz8Vy-9" value="" style="shape=image;verticalLabelPosition=bottom;labelBackgroundColor=default;verticalAlign=top;aspect=fixed;imageAspect=0;image=data:image/svg+xml,PHN2ZyB2aWV3Qm94PSIwIDAgMTI4IDEyOCIgeG1sbnM9Imh0dHA6Ly93d3cudzMub3JnLzIwMDAvc3ZnIj48cGF0aCBkPSJNODcuMjU5IDEwMC4xMzljLjE2OS0uMzI1LjMzMS0uNjEyLjQ2OS0uOTA5LjA4Ny0uMTkuMjIxLS4yMjguNDEtLjIyMyAxLjEzMy4wMzIgMi4yNjYuMDY3IDMuNC4wNzguOTYzLjAxIDEuOTI4LS4wMDggMi44OTItLjAxOSAxLjA4Ni0uMDEzIDIuMTcyLS4wNyAzLjI1Ny0uMDM5IDEuNDQ1LjA0MiAyLjg1My4zMjUgNC4xNi45NjggMS41NjEuNzY5IDIuNzQyIDEuOTQgMy41NDcgMy40ODNhOC43MSA4LjcxIDAgMDEuOTMxIDMuMTRjLjE3MiAxLjYwOC4wNTkgMy4xNzktLjQ1MSA0LjcxNy0uNjMyIDEuOTA2LTEuODMyIDMuMzY1LTMuNDk5IDQuNDU4LTEuMjgzLjg0MS0yLjY5IDEuMzM4LTQuMTk4IDEuNjIyLTEuNTk2LjMwMS0zLjE5Ny4yMDQtNC43OTguMjA5LTEuNzU2LjAwNy0zLjUxMS0uMDMxLTUuMjY3LS4wNTEtLjMwNy0uMDAzLS4zNTEtLjA2MS0uMjctLjM1NGwuMDc1LS4yN2MuMTcxLS41MzguMjYzLS41NjIuODA5LS42NTJhMi44MyAyLjgzIDAgMDAxLjA4Ny0uNDEzYy4xODQtLjEyMi4yNi0uNDQuMzMyLS42ODUuMDYyLS4yMTQuMDY1LS40NDkuMDY3LS42NzUuMDI1LTMuNDI1LjA1MS02Ljg0OS4wNjUtMTAuMjcyYTQ0LjA3NyA0NC4wNzcgMCAwMC0uMDY1LTIuNTk2Yy0uMDM0LS42MDUtLjM1Ny0xLjAxOS0xLjA3Ny0xLjE2Mi0uNTYtLjExMS0xLjEyNC0uMTk3LTEuNjg3LS4yOTZsLS4xODktLjA1OXptMTYuMDc2IDguMjkzYy0uMDc2LS42ODItLjExMy0xLjM3LS4yMzUtMi4wNDItLjI5Mi0xLjYxMy0uOTk4LTMuMDE4LTIuMjM4LTQuMTE5LTIuMDA1LTEuNzc5LTQuNDE5LTIuMDUzLTYuOTQ5LTEuODQxLS41NzYuMDQ4LS43LjI0NS0uNzA5LjgzNy0uMDE0Ljg0LS4wMjggMS42OC0uMDI5IDIuNTItLjAwNCAyLjY2NC0uMDA0IDUuMzI4IDAgNy45OTIuMDAxLjc1OC4wMDkgMS41MTYuMDMxIDIuMjcyLjAyNC43NzQuMzA1IDEuNDI5IDEuMDYzIDEuNzI5IDEuMTk1LjQ3MyAyLjQ1Mi41MjkgMy43MDYuMzM2IDIuMDAzLS4zMDcgMy40MDQtMS40NzQgNC4zNDQtMy4yMjMuNzQ0LTEuMzg4Ljk1NC0yLjkwMyAxLjAxNi00LjQ2MXptNC44NjkgOS4wNzFjLS4wMjQtLjQxNS4xNDYtLjc1OC4zNTYtMS4wNzMuMDU3LS4wODUuMjUzLS4wODEuMzg4LS4xMDhsMS4xNDYtLjIyN2MuNDA1LS4wODYuNjE4LS4zNTguNjc1LS43NTUuMDM4LS4yNjIuMDc0LS41MjcuMDc3LS43OTJhODc5LjYgODc5LjYgMCAwMC4wNTktNi4yOTFjLjAxLTIuMS4wMDItNC4yLjAwMi02LjNsLS4wMDktLjQwMWMtLjA0MS0uNjc1LS4zNjctMS4wMjUtMS4wMzctMS4xMjRsLTEuNDUzLS4yMjFjLS4xNzktLjAyNC0uMjQ0LS4xMS0uMTc5LS4yNjkuMTEyLS4yNzEuMjE5LS41NTIuMzc3LS43OTYuMDU5LS4wOS4yNTgtLjEyNS4zOTItLjEyMi42OTQuMDEgMS4zODguMDYyIDIuMDgyLjA2MWw2LjA0MS0uMDM2YzEuMTY0LS4wMDEgMi4yODguMjAyIDMuMzMyLjc1OSAxLjE0OS42MTIgMS43OTIgMS41NTkgMS45NzYgMi44NDkuMTkyIDEuMzU1LS4yMTkgMi40OTctMS4yMDkgMy40MDQtLjQwNy4zNzQtLjkzNC42MTgtMS40MDYuOTIybC0uMTU0LjA5NmMuNDM4LjE2MS44NTUuMyAxLjI2MS40NjYgMS4xODguNDg3IDIuMTMzIDEuMjQ4IDIuNjMzIDIuNDYzLjM5NS45NTkuMzk1IDEuOTU5LjE2MSAyLjk1My0uMzY0IDEuNTU2LTEuMzg5IDIuNTkxLTIuNzIyIDMuMzc0LTEuMjUxLjczNS0yLjYwNSAxLjE2My00LjA0NyAxLjIzNS0xLjMzLjA2Ny0yLjY2Ni4wNDItMy45OTkuMDU3bC0uNzcyLjAwNGE5OTYuMTA2IDk5Ni4xMDYgMCAwMS0zLjg1NC0uMDk2bC0uMTE3LS4wMzJ6bTUuNTM3LTYuMDg5aC4wMTNjMCAuNjU4LS4wMDkgMS4zMTYuMDAzIDEuOTc0LjAwOC40MjYtLjAwNy44NjQuMDg1IDEuMjc0LjEzOC42MTMuNDE4IDEuMTY2IDEuMTA2IDEuMzQyYTYuNjcxIDYuNjcxIDAgMDAyLjgxOC4xMjRjMS4xNzctLjIwNSAyLjExNi0uNzk1IDIuNjMxLTEuOTE2LjM4Mi0uODMzLjQzOS0xLjcxNi4zMDgtMi42MTgtLjE3NC0xLjE4OC0uODA1LTIuMDUtMS44NTQtMi42MTUtLjY4OC0uMzcxLTEuNDIyLS41OTgtMi4yMDQtLjYyOC0uODc2LS4wMzMtMS43NTMtLjAzNS0yLjYyOS0uMDYyLS4yNDYtLjAwNy0uMjguMTE4LS4yNzkuMzIuMDA1LjkzNC4wMDIgMS44NjkuMDAyIDIuODA1em0xLjg2NS00LjQ3NWMuNDc5LS4wMjQgMS4wMjEtLjAzMSAxLjU2LS4wODUgMS4wMzItLjEwMyAxLjc1OS0uNjIyIDIuMTM4LTEuNjA5LjE5My0uNTAxLjE4NS0xLjAxNy4xOS0xLjUzOC4wMTUtMS4zNTctLjc3Ny0yLjQ2OS0yLjA2Ni0yLjkyOS0uOTk1LS4zNTUtMi4wMjEtLjM2MS0zLjA1My0uMzMzLS40MTguMDExLS42MDUuMTk0LS42MTEuNjE1bC0uMDYyIDUuNDg5Yy0uMDAzLjIxOC4wOTEuMzEyLjMwMy4zMTlsMS42MDEuMDcxeiIgZmlsbD0iIzk0Nzk1RCIgY2xpcC1ydWxlPSJldmVub2RkIiBmaWxsLXJ1bGU9ImV2ZW5vZGQiLz48cGF0aCBkPSJNMTAuNTQzIDExNi40NDhsLS4wNzMuOTQ0Yy0uNjggMC0xLjMwNy0uMDA1LTEuOTM0LjAwMi0xLjE4MS4wMTItMi4zNjIuMDMxLTMuNTQ0LjA0OGwtLjExNC4wMDdjLS4xNjktLjAyLS40NzYtLjAyLS40ODQtLjA3LS4wNS0uMjgxLS4wMzQtLjU3Ni0uMDIxLS44NjcuMDAxLS4wMzMuMTE2LS4wNzUuMTgzLS4wOTFsLjkxOS0uMjA1Yy41NzMtLjE0OS43NzUtLjM5Ni44MDItLjk4OC4wMzEtLjY2Ny4wNjItMS4zMzUuMDY1LTIuMDAyLjAwOS0xLjY0Mi0uMDAxLTMuMjgyLjAwNi00LjkyNC4wMDEtLjM4NC0uMTMyLS42Ny0uNDktLjgyNmE0My43ODcgNDMuNzg3IDAgMDAtMS4yODUtLjU0NmMtLjIwNC0uMDgyLS40NjktLjEyNy0uNDQ1LS40MDEuMDI0LS4yNzkuMjgxLS4zNTIuNTIzLS40MDcgMS4wMDItLjIyOSAyLjAwNS0uNDUyIDMuMDA0LS42OTYuMzIyLS4wNzkuNjMtLjIxMiAxLjAxNS0uMzQ2LjAyLjIwOC4wNTcuNDA2LjA1My42MDRsLS4wNTkuOTQxYy0uMDAxLjEwNi4wNTQuMjQ4LjEzMy4zMDcuMDQ4LjAzNy4yMDktLjAzLjI4OS0uMDkyLjg1NC0uNjUgMS43NTgtMS4yMTEgMi43ODktMS41MzggMS41OTctLjUwNyAyLjk2OC0uMDM3IDMuOTI4IDEuMzQuMzM4LjQ4NS4zMzkuNDg1LjgwOC4xNDYuODA1LS41ODUgMS42NDctMS4xMDEgMi41ODktMS40NDEgMi4wNjgtLjc0NyA0LjA1NS4yMDEgNC43NzQgMi4yODQuMjYyLjc1Ni4zNjIgMS41MzcuMzYgMi4zMzVsLS4wMTkgNS4yOThjLS4wMDEuNDM3LjE0NC42ODYuNTYuODIyLjQ2Ny4xNTMuOTUxLjI1OCAxLjQ3Ny4zOTZsLS4xMjIuOTExYy0uNTk4IDAtMS4xNDgtLjAwNC0xLjY5OC4wMDEtMS4zNDQuMDEyLTIuNjg4LjAxOS00LjAzMS4wNS0uMjM0LjAwNi0uMjk1LS4wNTItLjMwNy0uMjcxLS4wMzktLjcwMS0uMDQ1LS43LjYxNS0uODU4bC4yMjItLjA1N2MuNjQ1LS4xNzYuODYtLjM3NC44NjUtMS4wMjguMDE1LTEuODc4LjA1NC0zLjc2MS0uMDQxLTUuNjM1LS4wOTktMS45NDQtMS42NDItMi45NzktMy41MjYtMi40ODFhNS4xOTQgNS4xOTQgMCAwMC0xLjY5LjgxNGMtLjE3NS4xMjUtLjIwOC4yNjktLjE5NC40ODguMDUzLjgyOC4wODYgMS42NTcuMDkzIDIuNDg2LjAxMiAxLjQ1MS0uMDA2IDIuOTAyIDAgNC4zNTQuMDAyLjU4OC4yMDMuODEzLjc4NC45NDlsLjg2My4xOTkuMTYuMDM2Yy4wMTIuMjc2LjAyMy41NTIuMDEuODI4LS4wMDguMTczLS4xNDIuMTg4LS4yOTIuMTg1LS44MzktLjAyMS0xLjY3OS0uMDQ5LTIuNTE4LS4wNDctMS4wMjEuMDAyLTIuMDQxLjAzMS0zLjA2MS4wNDloLS4yNGMwLS4yOTMtLjAxNC0uNTczLjAxLS44NTIuMDA1LS4wNjcuMTIzLS4xNjEuMjA0LS4xODJsMS4wMDYtLjIxM2MuNDI3LS4xMDUuNjMxLS4zMjQuNjU1LS43NTguMTE0LTIuMDEuMTk2LTQuMDIxLjAwNy02LjAzYTMuNjk1IDMuNjk1IDAgMDAtLjMyNi0xLjE0NWMtLjUxNS0xLjEzOC0xLjY3NC0xLjYxMy0zLjAxMS0xLjI3MS0uNjM1LjE2Mi0xLjIwOC40NTMtMS43NS44MmEuNzk1Ljc5NSAwIDAwLS4zNzguNjk1YzAgMi4wMDUuMDA3IDQuMDEuMDEzIDYuMDE0bC4wMTEuNzczYy4wMTIuNTM5LjI0MS44MjMuNzc2LjkzOS4zNDQuMDc4LjY5Mi4xMzEgMS4wODIuMjAzeiIgZmlsbD0iIzUwMzgyQiIgY2xpcC1ydWxlPSJldmVub2RkIiBmaWxsLXJ1bGU9ImV2ZW5vZGQiLz48cGF0aCBkPSJNNzEuMDAxIDEwNS4yODVjLjE1NS43NTQuMTUyIDEuNDMyLS40MDIgMS45NDYtLjU1LjUxMS0xLjI0Ni4zMzktMS45MjUuMjI1LjA2My4zNTguMTMzLjY2Mi4xNjcuOTcuMjQ3IDIuMjg5LS43MzggMy45ODgtMi44NjEgNC45NTktLjgwMi4zNjYtMS42NTMuNTAyLTIuNTIyLjU3Mi0uNDMyLjAzNC0uODEuMzY0LS44NTEuNzE5LS4wNDIuMzYuMTg0LjczLjYzNi44MzguNTMzLjEyNyAxLjA4OS4xNjMgMS42MzYuMjI2IDEuMTc0LjEzNCAyLjM2MS4xOTUgMy41MjEuNDA1IDEuNzU0LjMxNiAyLjczMyAxLjg0NyAyLjQyNCAzLjYwOS0uMjc1IDEuNTY4LTEuMTgzIDIuNzA5LTIuNDQ5IDMuNTg0LTIuMTMzIDEuNDc4LTQuNDczIDEuOTEtNi45NjUgMS4xNTYtMS40MjUtLjQzMi0yLjQzLTEuMzY5LTIuNzc3LTIuODg1LS4xNzQtLjc1OS4wMTEtMS40NDYuNTgyLTEuOTYxLjY3OS0uNjEgMS40MTgtMS4xNTQgMi4xMjktMS43M2wuMjMtLjIzMS0uMjY0LS4xODVjLS43MjUtLjM0NC0xLjMwNS0uODE1LTEuNTMtMS42MzMtLjA3Ny0uMjc3LjAwMy0uNDU5LjIzOC0uNjAxLjQtLjI0MS43OTgtLjQ4NiAxLjE5My0uNzM1LjE4Ni0uMTE2LjM3LS4yMzYuNTQzLS4zNy4yMzYtLjE4LjIxNS0uMzE0LS4wNjctLjQxOC0uNjU2LS4yNDItMS4yMzktLjU5My0xLjY5MS0xLjEzMy0uNzU1LS45MDEtLjk2OS0xLjk3NC0uOTA3LTMuMTA3LjA5Ny0xLjc3IDEuMDU4LTIuOTM2IDIuNjItMy42ODYgMS44NTctLjg5MSAzLjcyLS45NDcgNS42MTMtLjEzNS43LjMgMS40MzguMzY0IDIuMTg5LjMxMi41NjEtLjA0IDEuMDUxLS4yNTIgMS40OS0uNzExem0tNi44NDMgMTIuNjgxYy0xLjM5NC0uMDEyLTEuODMxLjE2LTIuNjQ5Ljk5My0uOTE2LjkzNC0uOTExIDIuMjI5LjAwMyAzLjE2Ny42OTQuNzExIDEuNTYgMS4wNDQgMi41MjMgMS4xNDQgMS4xMjUuMTE2IDIuMjMzLjA2OSAzLjI1NS0uNDk0IDEuMDktLjYwMyAxLjYzMi0xLjcyMyAxLjM4Ny0yLjg1MS0uMjAzLS45MzEtLjg4OS0xLjM1Ny0xLjcyNC0xLjYwMi0uOTUtLjI3OC0xLjkzMi0uMzMxLTIuNzk1LS4zNTd6bS0yLjczOC04LjkwOGMuMDUxLjM4Ny4wNzIuNzc5LjE1OCAxLjE1OC4yMjMuOTgyLjY1IDEuODQ1IDEuNjI3IDIuMjgyIDEuMTQ3LjUxNSAyLjYxMi4yOTQgMy4xMTQtMS4zMTZhNC44NTMgNC44NTMgMCAwMC0uMTEzLTMuMjc0IDIuNTEyIDIuNTEyIDAgMDAtLjkxLTEuMTg0Yy0uOTk2LS42OTUtMi43OTMtLjc4Ny0zLjUyNS43NDktLjIzOC40OTktLjMzMSAxLjAzLS4zNTEgMS41ODV6IiBmaWxsPSIjNEYzODJCIiBjbGlwLXJ1bGU9ImV2ZW5vZGQiIGZpbGwtcnVsZT0iZXZlbm9kZCIvPjxwYXRoIGQ9Ik00Ny4zNSAxMDUuMDM4Yy4wMzcuMTcxLjExMS4zNjUuMTEzLjU2LjAwMy4zNzEtLjAzNy43NDItLjA1OCAxLjExM3YuMzIybC4zMTQtLjI0Yy44Ni0uNzA4IDEuNzg0LTEuMzExIDIuODYtMS42MzYgMS45NDItLjU4NSAzLjg4Mi40NzggNC41MTUgMi40NTYuMjQuNzUyLjMzNSAxLjUyNS4zNDQgMi4zMTEuMDIgMS43NDYuMDMyIDMuNDkyLjA1IDUuMjM4LjAwNi42MjcuMDc4LjczOS42NzEuOTJhNy40IDcuNCAwIDAwMS4wMy4yMjljLjE5MS4wMy4yNzMuMTA1LjI2My4yOTJsLjAwMi4xNzJjLS4wMDcuNzIzLS4wNTcuNzU2LS43NTguNzU0LTEuNjc4LS4wMDMtMy4zNTUuMDA3LTUuMDMzLjAyMS0uNS4wMDQtLjUwMS4wMTktLjU1MS0uNDc1bC0uMDEtLjI4NGMuMDMxLS40MjYuMDQxLS40MjIuNDYtLjQ4NC4yODItLjA0Mi41NjItLjEwNy44MzctLjE3OS4yODMtLjA3My40MTktLjI4Mi40NTctLjU2Mi4wMTktLjE0Mi4wNDQtLjI4NC4wNDMtLjQyNi0uMDI0LTEuOTA4LjAwNy0zLjgxOC0uMDk3LTUuNzIzLS4wODQtMS41NDEtMS4yNi0yLjQ1OS0yLjgwNy0yLjM1NGE0LjA0NyA0LjA0NyAwIDAwLTIuMDcxLjc0M2MtLjQxMy4yODktLjQ5Ni43MDYtLjQ5NCAxLjE1NS4wMDggMS43ODQuMDI1IDMuNTY4LjA0NCA1LjM1My4wMDQuMzkxLjAxNS43ODIuMDUyIDEuMTcuMDM5LjQyNC4xODguNTk1LjYwNC42ODcuMzk4LjA4OC44MDQuMTM5IDEuMjI5LjIxbC4wMzYuMzI4Yy4wMTQuNzY1LS4wNjYuODIyLS44MDkuODE5LTEuNzM1LS4wMDctMy40Ny4wMDQtNS4yMDQuMDIzLS4yNzMuMDA0LS4zODktLjA4Mi0uMzgyLS4zNDhsLS4wMDQtLjExNGMtLjA0NS0uNjg5LS4wMjUtLjcxNS42MjctLjgyN2wuMzA4LS4wNjJjLjcwNi0uMTU5Ljg4Ny0uMzQ3Ljg5Ny0xLjA2NC4wMzMtMi4yNzEuMDQ1LTQuNTQxLjA2OC02LjgxMi4wMDMtLjMyNi0uMTItLjU3OS0uNDI0LS43MTRhNTMuODggNTMuODggMCAwMC0xLjI4Ny0uNTQ0Yy0uMjM4LS4wOTgtLjUxLS4xNi0uNTE5LS40ODktLjAwNi0uMjMyLjI0Mi0uNDM3LjU4MS0uNTA2LjY4MS0uMTM4IDEuMzY4LS4yNTMgMi4wNDEtLjQyMi42Ny0uMTY3IDEuMzI4LS4zOTEgMi4wNjItLjYxMXoiIGZpbGw9IiM0RjM3MkIiIGNsaXAtcnVsZT0iZXZlbm9kZCIgZmlsbC1ydWxlPSJldmVub2RkIi8+PHBhdGggZD0iTTg0Ljg2NSAxMTAuOTdjLS4wMzIgMi4xMjEtLjU4MyAzLjgzNi0yLjA4MyA1LjEyMy0xLjkgMS42MzMtNC44NjQgMi4xODgtNy4yODcuOTY3LTEuMDM0LS41MjEtMS43OTQtMS4zMi0yLjI4OS0yLjM1Ny0uNzU5LTEuNTk1LS45NDktMy4yNzItLjU1My00Ljk5LjM5Mi0xLjY5OSAxLjQyMS0yLjkzIDIuOTYxLTMuNzI3IDEuNTg0LS44MTkgMy4yNTItMS4xMzkgNS4wMTEtLjcwOSAyLjIyNS41NDMgMy44MjQgMi4zNTcgNC4xNDIgNC42NjcuMDU3LjQwNS4wNzkuODE1LjA5OCAxLjAyNnptLTIuNTc3IDEuMTQ5bC0uMDg2LS4wMWMwLS4yLjAxMS0uNC0uMDAyLS42LS4wNzMtMS4yNDYtLjM1My0yLjQzMy0xLjA3NS0zLjQ3Ni0uNjg1LS45ODgtMS42MTgtMS41NzEtMi44MzItMS42NTYtMS4zNTktLjA5Ni0yLjUwMS42NjQtMi45MDIgMi4wNTItLjYwMiAyLjA4NC0uMzk4IDQuMTE1LjY2IDYuMDI0LjQ2MS44MzIgMS4xNDQgMS40NDYgMi4wNTkgMS43NjkgMS43OTMuNjMxIDMuMzgzLS4xODYgMy44NS0yLjAyMi4xNzItLjY3OC4yMjItMS4zODcuMzI4LTIuMDgxeiIgZmlsbD0iIzRGMzgyQiIgY2xpcC1ydWxlPSJldmVub2RkIiBmaWxsLXJ1bGU9ImV2ZW5vZGQiLz48cGF0aCBkPSJNNDAuODE5IDExMS4xMzRjLS4wMzcgMS41MjItLjM5NiAyLjkyOS0xLjMzNiA0LjE1Mi0xLjAwNyAxLjMxLTIuMzkxIDIuMDEtMy45NjUgMi4zMDUtMS44NjEuMzQ4LTMuNjA5LjAzMi01LjEwNC0xLjIxNy0uNzEtLjU5NC0xLjE5NS0xLjM1NS0xLjUxNS0yLjIyMS0uNTI1LTEuNDItLjY1Ni0yLjg3NS0uMzMzLTQuMzU4LjM0NS0xLjU4NyAxLjI0MS0yLjggMi42My0zLjYxNCAxLjYwNi0uOTM5IDMuMzM5LTEuMzU4IDUuMTktLjkzNiAyLjM4LjU0NCAzLjc1NCAyLjA5NSA0LjI2MiA0LjQ0My4xMDIuNDc0LjExNi45NjQuMTcxIDEuNDQ2em0tMi42MDYgMS4wMDRsLS4wNjktLjAxdi0uMjg2Yy0uMDM5LTEuMzk2LS4zMTItMi43MjYtMS4xNDUtMy44ODYtLjYxNy0uODYxLTEuNDQzLTEuNDAxLTIuNTAyLTEuNTUyLTEuNzI2LS4yNDYtMi44NTQuNzc4LTMuMjI4IDIuMTY5LS40ODggMS44MTctLjMzNSAzLjYxMi40MiA1LjMzNS40NzEgMS4wNzQgMS4yMTUgMS45MTEgMi4zNTggMi4zMTcgMS43ODIuNjMzIDMuMzk2LS4yMDUgMy44NDctMi4wMzQuMTY2LS42NjkuMjE2LTEuMzY3LjMxOS0yLjA1M3oiIGZpbGw9IiM0RjM3MkIiIGNsaXAtcnVsZT0iZXZlbm9kZCIgZmlsbC1ydWxlPSJldmVub2RkIi8+PHBhdGggZD0iTTgyLjM2MiAzMy41NDRjMS4yMjcgMy41NDcgMi4xMDkgNy4xNjggMi40IDEwLjkyLjM2IDQuNjU2LjE5NiA5LjI4LS43ODYgMTMuODU5bC0uMTI2LjM2NmMtLjMwOC4wMDEtLjYyMi0uMDM4LS45MjMuMDA5LTIuNTQzLjQtNS4wODMuODE0LTcuNjI0IDEuMjI2LTIuNjI3LjQyNi01LjI1Ni44MzUtNy44NzggMS4yODktLjkyOS4xNi0yLjA3OS0uMDMxLTIuNDU0IDEuMjUzbC0uMTguMDYxLjEyNy03LjY3OC0uMTI5LTE4LjUyNiAxLjIyNC0uMjFjMi4wMDEtLjMyNyA0LjAwMi0uNjYgNi4wMDYtLjk3OSAyLjM5LS4zNzkgNC43ODItLjc0OSA3LjE3NC0xLjExOSAxLjA1Ni0uMTYyIDIuMTEzLS4zMTMgMy4xNjktLjQ3MXoiIGZpbGw9IiM0Mzk5MzQiIGNsaXAtcnVsZT0iZXZlbm9kZCIgZmlsbC1ydWxlPSJldmVub2RkIi8+PHBhdGggZD0iTTYyLjI2NSA4NC45MTFjLTEuMjkxLTEuMTEtMi42MjctMi4xNzEtMy44NjQtMy4zMzktNi42NTgtNi4yOC0xMS41MjktMTMuNjczLTEzLjkyOC0yMi41ODYtLjY2MS0yLjQ1Mi0xLjEwMS00Ljk0NS0xLjI0My03LjQ3OS0uMS0xLjc3NC0uMjQzLTMuNTYzLS4xMTctNS4zMjguMzMzLTQuNjkzIDEuMDEyLTkuMzQxIDIuMzg4LTEzLjg2MmwuMDc2LS4xMDVjLjEzNC4xNzguMzI2LjMzNi4zOTQuNTM3IDEuMzQ0IDMuOTU2IDIuNjc3IDcuOTE2IDQuMDA0IDExLjg3OSA0LjE2OSAxMi40NTEgOC4zMzMgMjQuOTA1IDEyLjUwOSAzNy4zNTQuMDgyLjI0My4yOTMuNDQyLjQ0NS42NjFsLS42NjQgMi4yNjh6IiBmaWxsPSIjNDVBNTM4IiBjbGlwLXJ1bGU9ImV2ZW5vZGQiIGZpbGwtcnVsZT0iZXZlbm9kZCIvPjxwYXRoIGQ9Ik04Mi4zNjIgMzMuNTQ0Yy0xLjA1Ny4xNTctMi4xMTQuMzA5LTMuMTY5LjQ3MS0yLjM5Mi4zNy00Ljc4NC43NC03LjE3NCAxLjExOS0yLjAwMy4zMTgtNC4wMDQuNjUxLTYuMDA2Ljk3OWwtMS4yMjQuMjEtLjAxLS43OThjLS4wNDEtLjY1Ni0uMTA5LTEuMzEyLS4xMTgtMS45NjhsLS4xMzctMTIuNTU0Yy0uMDMyLTIuNjE5LS4wOC01LjIzOC0uMTMzLTcuODU2YTE5OC40MjMgMTk4LjQyMyAwIDAwLS4xNDEtNC44OGMtLjA0LS44NzMtLjE4MS0xLjc0Mi0uMjM3LTIuNjE1LS4wMzMtLjUwMi4wMTEtMS4wMDguMDIyLTEuNTEyLjYyNCAxLjIwOSAxLjIzNSAyLjQyNyAxLjg3NiAzLjYyNyAxLjAxMyAxLjg5NyAyLjYyOCAzLjI5NSA0LjA4MyA0LjgyIDUuNzQ2IDYuMDMxIDkuODI1IDEzLjAzOSAxMi4zNjggMjAuOTU3eiIgZmlsbD0iIzQ2QTAzNyIgY2xpcC1ydWxlPSJldmVub2RkIiBmaWxsLXJ1bGU9ImV2ZW5vZGQiLz48cGF0aCBkPSJNNjQuNzkyIDYyLjUyN2wuMTgtLjA2MWMuMzc1LTEuMjg0IDEuNTI1LTEuMDkzIDIuNDU0LTEuMjUzIDIuNjIyLS40NTQgNS4yNTEtLjg2MyA3Ljg3OC0xLjI4OSAyLjU0MS0uNDExIDUuMDgxLS44MjUgNy42MjQtMS4yMjYuMzAxLS4wNDcuNjE1LS4wMDguOTIzLS4wMDktLjQ3NSAxLjY5Ni0uODQ5IDMuNDI5LTEuNDUyIDUuMDc4LS42ODUgMS44Ny0xLjUxMyAzLjY5Ni0yLjM5MiA1LjQ4NmEzNy41OTUgMzcuNTk1IDAgMDEtNC44NTMgNy40NThjLTEuNDY2IDEuNzYyLTMuMSAzLjM5My00LjczNyA1LjAwMi0uOTA2Ljg4OS0xLjk3MiAxLjYxNC0yLjk2NiAyLjQxNGwtLjI1OC0uMTc2LS45MjctLjc5Mi0uOTU5LTIuMTA0YTMxLjY1IDMxLjY1IDAgMDEtMS4wNjUtNy41MTZsLjAxOC0uNDI4LjEzMS0xLjg1NGMuMDQzLS42MzMuMTAxLTEuMjY1LjEyOC0xLjg5OC4wOTYtMi4yNzYuMTgyLTQuNTU0LjI3My02LjgzMnoiIGZpbGw9IiM0MDk0MzMiIGNsaXAtcnVsZT0iZXZlbm9kZCIgZmlsbC1ydWxlPSJldmVub2RkIi8+PHBhdGggZD0iTTY0Ljc5MiA2Mi41MjdjLS4wOSAyLjI3OC0uMTc2IDQuNTU3LS4yNzMgNi44MzUtLjAyNy42MzQtLjA4NCAxLjI2Ni0uMTI4IDEuODk4bC0uNTg0LjIyMWMtMS4yOTgtMy44MjEtMi41OTctNy42MDItMy44NjctMTEuMzkyLTIuMTAxLTYuMjcxLTQuMTc2LTEyLjU1MS02LjI3NC0xOC44MjRhMzQyMy4wMTMgMzQyMy4wMTMgMCAwMC01LjExOC0xNS4xNzZjLS4wODEtLjIzNi0uMzExLS40MjItLjQ3MS0uNjMxbDMuNzQtNi44NzdjLjEyOS4yMjMuMjk4LjQzMi4zNzkuNjcyIDEuNzMgNS4xMiAzLjQ1NyAxMC4yNDEgNS4xNjkgMTUuMzY3IDIuMjI4IDYuNjcgNC40NDEgMTMuMzQzIDYuNjY3IDIwLjAxNC4wODkuMjY2LjIzNS41MTIuMzc1LjgxMWwuNTEyLS41OTYtLjEyNyA3LjY3OHoiIGZpbGw9IiM0RkFBNDEiIGNsaXAtcnVsZT0iZXZlbm9kZCIgZmlsbC1ydWxlPSJldmVub2RkIi8+PHBhdGggZD0iTTQ4LjA3NiAyNS40NThjLjE2MS4yMDkuMzkxLjM5NS40NzEuNjMxYTMzNzkuNzc0IDMzNzkuNzc0IDAgMDE1LjExOCAxNS4xNzZjMi4wOTggNi4yNzMgNC4xNzMgMTIuNTUzIDYuMjc0IDE4LjgyNCAxLjI3IDMuNzkgMi41NjkgNy41NyAzLjg2NyAxMS4zOTJsLjU4NC0uMjIxLS4xMzEgMS44NTQtLjExOS40MjdjLS4yMDMgMi4wMjktLjM3NCA0LjA2Mi0uNjIyIDYuMDg3LS4xMjQgMS4wMTUtLjM4OSAyLjAxMS0uNTkgMy4wMTUtLjE1MS0uMjE5LS4zNjMtLjQxOC0uNDQ1LS42NjEtNC4xNzctMTIuNDQ5LTguMzQtMjQuOTAzLTEyLjUwOS0zNy4zNTRhMzAxMC43OTEgMzAxMC43OTEgMCAwMC00LjAwNC0xMS44NzljLS4wNjgtLjIwMS0uMjYtLjM1OS0uMzk0LS41MzdsMi41LTYuNzU0eiIgZmlsbD0iIzRBQTczQyIgY2xpcC1ydWxlPSJldmVub2RkIiBmaWxsLXJ1bGU9ImV2ZW5vZGQiLz48cGF0aCBkPSJNNjQuOTE4IDU0Ljg0OWwtLjUxMi41OTZjLS4xNC0uMjk5LS4yODYtLjU0NS0uMzc1LS44MTEtMi4yMjYtNi42NzEtNC40MzktMTMuMzQ0LTYuNjY3LTIwLjAxNGE0NjE4LjA1NyA0NjE4LjA1NyAwIDAwLTUuMTY5LTE1LjM2N2MtLjA4MS0uMjQtLjI1LS40NDktLjM3OS0uNjcybDQuNjI1LTYuMDg0Yy4xNDYuMTk0LjM1NC4zNjcuNDI5LjU4NiAxLjI4NCAzLjc2IDIuNTU2IDcuNTIzIDMuODIyIDExLjI4OSAxLjE4MiAzLjUxOCAyLjM0NiA3LjA0IDMuNTQyIDEwLjU1Mi4wOC4yMzUuMzU5LjQwMS41NDUuNjAxbC4wMS43OTguMTI5IDE4LjUyNnoiIGZpbGw9IiM1N0FFNDciIGNsaXAtcnVsZT0iZXZlbm9kZCIgZmlsbC1ydWxlPSJldmVub2RkIi8+PHBhdGggZD0iTTY0Ljc3OSAzNS41MjVjLS4xODctLjE5OS0uNDY1LS4zNjUtLjU0NS0uNjAxLTEuMTk1LTMuNTEyLTIuMzYtNy4wMzQtMy41NDItMTAuNTUyYTI0OTUuNTgxIDI0OTUuNTgxIDAgMDAtMy44MjItMTEuMjg5Yy0uMDc1LS4yMTktLjI4My0uMzkyLS40MjktLjU4NiAxLjUwNC0xLjQ3MyAyLjk2MS0yLjk5OSA0LjUyNi00LjQwNCAxLjM5MS0xLjI0OCAyLjUwOS0yLjU4NiAyLjU2MS00LjU1OWwuMTEtLjM5My4zOTYuOTk4Yy0uMDEuNTA0LS4wNTUgMS4wMS0uMDIyIDEuNTEyLjA1Ny44NzMuMTk4IDEuNzQyLjIzNyAyLjYxNS4wNzMgMS42MjUuMTA4IDMuMjUzLjE0MSA0Ljg4LjA1MyAyLjYxOC4xMDEgNS4yMzcuMTMzIDcuODU2bC4xMzcgMTIuNTU0Yy4wMS42NTcuMDc5IDEuMzEzLjExOSAxLjk2OXoiIGZpbGw9IiM2MEIyNEYiIGNsaXAtcnVsZT0iZXZlbm9kZCIgZmlsbC1ydWxlPSJldmVub2RkIi8+PHBhdGggZD0iTTYyLjkyOSA4Mi42NDJjLjIwMS0xLjAwNC40NjYtMiAuNTktMy4wMTUuMjQ4LTIuMDI0LjQxOS00LjA1OC42MjItNi4wODdsLjA1MS0uMDA4LjA1LjAwOWEzMS42NSAzMS42NSAwIDAwMS4wNjUgNy41MTZjLS4xMzUuMTc4LS4zMjQuMzM1LS4zOTYuNTM1LS41NTUgMS41NjYtMS4wNzkgMy4xNDUtMS42MzcgNC43MS0uMDc2LjIxNC0uMjkuMzgxLS40MzkuNTY4bC0uNTcxLTEuOTYuNjY1LTIuMjY4eiIgZmlsbD0iI0E5QUE4OCIgY2xpcC1ydWxlPSJldmVub2RkIiBmaWxsLXJ1bGU9ImV2ZW5vZGQiLz48cGF0aCBkPSJNNjIuODM1IDg2Ljg3MWMuMTQ5LS4xODguMzYzLS4zNTQuNDM5LS41NjguNTU4LTEuNTY1IDEuMDgyLTMuMTQ0IDEuNjM3LTQuNzEuMDcxLS4yLjI2MS0uMzU3LjM5Ni0uNTM1bC45NTkgMi4xMDRjLS4xODkuMjY4LS40NTEuNTExLS41NTYuODFsLTEuODM2IDUuMzkyYy0uMDc2LjIxNy0uMzMzLjM2OS0uNTA3LjU1MmwtLjUzMi0zLjA0NXoiIGZpbGw9IiNCNkI1OTgiIGNsaXAtcnVsZT0iZXZlbm9kZCIgZmlsbC1ydWxlPSJldmVub2RkIi8+PHBhdGggZD0iTTYzLjM2NyA4OS45MTVjLjE3My0uMTgzLjQzMS0uMzM1LjUwNy0uNTUybDEuODM2LTUuMzkyYy4xMDQtLjI5OS4zNjctLjU0Mi41NTYtLjgxbC45MjguNzkxYy0uNDQ4LjQ0My0uNjk3Ljk1NS0uNTQ3IDEuNjAybC0uMjgyLjkyM2MtLjEyOC4xNTgtLjMxNC4yOTYtLjM3Ny40NzctLjY0MSAxLjgzNi0xLjI1MiAzLjY4Mi0xLjg5OCA1LjUxNy0uMDgyLjIzMi0uMzA5LjQxNS0uNDY4LjYyMWwtLjI1NS0zLjE3N3oiIGZpbGw9IiNDMkMxQTciIGNsaXAtcnVsZT0iZXZlbm9kZCIgZmlsbC1ydWxlPSJldmVub2RkIi8+PHBhdGggZD0iTTYzLjYyMSA5My4wOTFjLjE2LS4yMDYuMzg3LS4zODkuNDY4LS42MjEuNjQ2LTEuODM1IDEuMjU4LTMuNjgxIDEuODk4LTUuNTE3LjA2My0uMTgxLjI0OS0uMzE4LjM3Ny0uNDc3bC0uMzg5IDQuMjM2Yy0uMTA0LjEyLS4yNTQuMjI1LS4zMDQuMzY0bC0xLjI5NCAzLjcwOGMtLjA5MS4yNTMtLjI2NS40NzktLjQwMS43MTYtLjEyMS0uMTU4LS4zMzctLjMxMS0uMzQ3LS40NzUtLjAzOC0uNjQyLS4wMTEtMS4yODktLjAwOC0xLjkzNHoiIGZpbGw9IiNDRUNEQjciIGNsaXAtcnVsZT0iZXZlbm9kZCIgZmlsbC1ydWxlPSJldmVub2RkIi8+PHBhdGggZD0iTTYzLjk3NyA5NS41MDFjLjEzNi0uMjM3LjMxLS40NjMuNDAxLS43MTZsMS4yOTQtMy43MDhjLjA1LS4xNC4yMDEtLjI0NC4zMDQtLjM2NGwuMDEgMi43OC0uOTMxIDIuMzg3LTEuMDc4LS4zNzl6IiBmaWxsPSIjREJEQUM3IiBjbGlwLXJ1bGU9ImV2ZW5vZGQiIGZpbGwtcnVsZT0iZXZlbm9kZCIvPjxwYXRoIGQ9Ik02NS4wNTUgOTUuODhsLjkzMS0yLjM4Ny4xOTIgMi44MjQtMS4xMjMtLjQzN3oiIGZpbGw9IiNFQkU5REMiIGNsaXAtcnVsZT0iZXZlbm9kZCIgZmlsbC1ydWxlPSJldmVub2RkIi8+PHBhdGggZD0iTTY2LjY0NiA4NS41NTRjLS4xNDktLjY0Ni4wOTktMS4xNTguNTQ3LTEuNjAybC4yNTguMTc2LS44MDUgMS40MjZ6IiBmaWxsPSIjQ0VDREI3IiBjbGlwLXJ1bGU9ImV2ZW5vZGQiIGZpbGwtcnVsZT0iZXZlbm9kZCIvPjxwYXRoIGQ9Ik02NC4yNDIgNzMuNTQybC0uMDUtLjAwOS0uMDUxLjAwOC4xMTktLjQyNy0uMDE4LjQyOHoiIGZpbGw9IiM0RkFBNDEiIGNsaXAtcnVsZT0iZXZlbm9kZCIgZmlsbC1ydWxlPSJldmVub2RkIi8+PC9zdmc+;" parent="1" vertex="1">
          <mxGeometry x="396" y="240" width="67" height="67" as="geometry" />
        </mxCell>
        <mxCell id="9SrCHgTtJ7KZjs1FLYit-6" value="" style="shape=datastore;whiteSpace=wrap;html=1;fillColor=#f8cecc;gradientColor=#ea6b66;strokeColor=#b85450;" vertex="1" parent="1">
          <mxGeometry x="527" y="198" width="90" height="110" as="geometry" />
        </mxCell>
        <mxCell id="pCmtLmL86r-4NyQDz8Vy-16" value="" style="shape=image;verticalLabelPosition=bottom;labelBackgroundColor=default;verticalAlign=top;aspect=fixed;imageAspect=0;image=data:image/svg+xml,PHN2ZyB2aWV3Qm94PSIwIDAgMTI4IDEyOCIgeG1sbnM9Imh0dHA6Ly93d3cudzMub3JnLzIwMDAvc3ZnIj48cGF0aCBmaWxsPSIjNjM2NDY2IiBkPSJNMjEuNCA5Ny42YzAgMS44LTEuNSAzLjUtMy41IDMuNS0xLjUgMC0yLjguNC00IDEuMy0xLjMuOC0yLjIgMS45LTMgMy4yLTEuNiAyLjEtMi40IDQuNi0yLjcgNS41djEyLjVjMCAxLjktMS42IDMuNS0zLjYgMy41LTEuOSAwLTMuNS0xLjYtMy41LTMuNXYtMjZjMC0xLjkgMS42LTMuNCAzLjUtMy40IDIgMCAzLjYgMS41IDMuNiAzLjR2LjVjLjQtLjUuOS0xIDEuNC0xLjMgMi4yLTEuNCA1LTIuNiA4LjMtMi42IDIgMCAzLjUgMS41IDMuNSAzLjR6bS0xLjkgMTNjLjEtOSA3LTE2LjUgMTYuMS0xNi41IDguNiAwIDE1LjMgNi40IDE1LjkgMTUuM3YuM2MwIC4xIDAgLjUtLjEuNi0uMiAxLjYtMS42IDIuNi0zLjQgMi42SDI3Yy4zIDEuNSAxLjEgMy4yIDIuMiA0LjMgMS40IDEuNiA0IDIuOCA2LjMgMyAyLjQuMiA1LjItLjQgNi44LTEuNiAxLjQtMS40IDQuMS0xLjMgNC45LS4yLjkuOSAxLjUgMi45IDAgNC4zLTMuMiAzLTcuMSA0LjMtMTEuOCA0LjMtOC45IDAtMTUuOS03LjUtMTUuOS0xNi40em03LjEtMy4yaDE4LjZjLS43LTIuNi00LTYuNS05LjctNy01LjYuMi04LjMgNC4zLTguOSA3em01OC4zIDE2LjFjMCAxLjktMS42IDMuNi0zLjYgMy42LTEuOCAwLTMuMi0xLjMtMy41LTIuOC0yLjUgMS43LTUuNyAyLjgtOSAyLjgtOC45IDAtMTYtNy41LTE2LTE2LjQgMC05IDcuMS0xNi41IDE2LTE2LjUgMy4yIDAgNi40IDEuMSA4LjggMi44Vjg0LjVjMC0xLjkgMS42LTMuNiAzLjYtMy42czMuNiAxLjYgMy42IDMuNnYyNi4ybC4xIDEyLjh6bS0xNi0yMi4yYy0yLjQgMC00LjUgMS02LjIgMi43LTEuNiAxLjYtMi42IDQtMi42IDYuNiAwIDIuNSAxIDQuOSAyLjYgNi41IDEuNiAxLjcgMy44IDIuNyA2LjIgMi43IDIuNCAwIDQuNS0xIDYuMi0yLjcgMS42LTEuNiAyLjYtNCAyLjYtNi41IDAtMi42LTEtNS0yLjYtNi42LTEuNi0xLjctMy43LTIuNy02LjItMi43em0yOC42LTE1LjRjMCAyLTEuNSAzLjYtMy42IDMuNi0yIDAtMy42LTEuNi0zLjYtMy42di0xLjRjMC0yIDEuNi0zLjYgMy42LTMuNnMzLjYgMS42IDMuNiAzLjZ2MS40em0wIDExLjl2MjUuN2MwIDItMS41IDMuNi0zLjYgMy42LTIgMC0zLjYtMS42LTMuNi0zLjZWOTcuOGMwLTIuMSAxLjYtMy42IDMuNi0zLjYgMi4xIDAgMy42IDEuNSAzLjYgMy42em00LjUgMTkuOGMxLjItMS42IDMuNS0xLjggNC45LS41IDEuNyAxLjQgNC43IDMgNy4yIDIuOSAxLjggMCAzLjQtLjYgNC41LTEuMy45LS44IDEuMi0xLjQgMS4yLTIgMC0uMy0uMS0uNS0uMi0uNy0uMS0uMi0uMy0uNS0uOS0uOC0uOS0uNy0yLjktMS40LTUuMy0xLjhoLS4xYy0yLS40LTQtLjktNS43LTEuNy0xLjgtLjktMy40LTItNC41LTMuOC0uNy0xLjItMS4xLTIuNi0xLjEtNC4xIDAtMyAxLjctNS42IDMuOS03LjIgMi4zLTEuNiA1LjEtMi40IDguMS0yLjQgNC41IDAgNy44IDIuMiA5LjkgMy42IDEuNiAxLjEgMiAzLjIgMS4xIDQuOS0xLjEgMS42LTMuMiAyLTQuOS45LTIuMS0xLjQtNC0yLjQtNi4xLTIuNC0xLjYgMC0zLjEuNS00IDEuMi0uOS42LTEuMSAxLjItMS4xIDEuNSAwIC4zIDAgLjMuMS41LjEuMS4zLjQuNy43LjkuNiAyLjYgMS4yIDQuOCAxLjZsLjEuMWguMWMyLjIuNCA0LjIgMSA2LjEgMS45IDEuOC44IDMuNiAyIDQuNyAzLjkuOCAxLjMgMS4zIDIuOCAxLjMgNC4zIDAgMy4yLTEuOCA1LjktNC4xIDcuNi0yLjQgMS42LTUuMyAyLjYtOC42IDIuNi01LjEtLjEtOS4xLTIuNC0xMS43LTQuNS0xLjQtMS4zLTEuNi0zLjUtLjQtNXoiLz48cGF0aCBkPSJNMTA2LjkgNjIuN2MtNSAyLjYtMzAuNyAxMy4yLTM2LjIgMTYtNS41IDIuOS04LjUgMi44LTEyLjguOC00LjQtMi4xLTMxLjctMTMuMS0zNi43LTE1LjUtMi41LTEuMi0zLjgtMi4yLTMuOC0zLjF2LTkuNHMzNS42LTcuOCA0MS40LTkuOGM1LjgtMi4xIDcuOC0yLjEgMTIuNi0uMyA0LjkgMS44IDM0LjIgNy4xIDM5IDguOHY5LjNjLjEuOS0xIDEuOS0zLjUgMy4yeiIgZmlsbD0iI0E0MUUxMSIvPjxwYXRoIGQ9Ik0xMDYuOSA1My4zYy01IDIuNi0zMC43IDEzLjItMzYuMiAxNi01LjUgMi45LTguNSAyLjgtMTIuOC44QzUzLjUgNjggMjYuMiA1NyAyMS4yIDU0LjZjLTQuOS0yLjQtNS00LS4yLTUuOSA0LjgtMS45IDMyLjEtMTIuNiAzNy44LTE0LjYgNS44LTIuMSA3LjgtMi4xIDEyLjYtLjMgNC45IDEuOCAzMC41IDEyIDM1LjMgMTMuNyA1IDEuOCA1LjIgMy4yLjIgNS44eiIgZmlsbD0iI0Q4MkMyMCIvPjxwYXRoIGQ9Ik0xMDYuOSA0Ny40Yy01IDIuNi0zMC43IDEzLjItMzYuMiAxNi01LjUgMi45LTguNSAyLjgtMTIuOC44LTQuNC0yLjEtMzEuNy0xMy4yLTM2LjctMTUuNS0yLjUtMS4yLTMuOC0yLjItMy44LTMuMXYtOS40czM1LjYtNy44IDQxLjQtOS44YzUuOC0yLjEgNy44LTIuMSAxMi42LS4zIDQuOSAxLjggMzQuMiA3LjEgMzkgOC44djkuM2MuMS45LTEgMS45LTMuNSAzLjJ6IiBmaWxsPSIjQTQxRTExIi8+PHBhdGggZD0iTTEwNi45IDM4Yy01IDIuNi0zMC43IDEzLjItMzYuMiAxNi01LjUgMi45LTguNSAyLjgtMTIuOC44LTQuMy0yLjEtMzEuNy0xMy4xLTM2LjYtMTUuNS00LjktMi40LTUtNC0uMi01LjkgNC44LTEuOSAzMi4xLTEyLjYgMzcuOC0xNC42IDUuOC0yLjEgNy44LTIuMSAxMi42LS4zIDQuOSAxLjggMzAuNSAxMiAzNS4zIDEzLjcgNC45IDEuNyA1LjEgMy4yLjEgNS44eiIgZmlsbD0iI0Q4MkMyMCIvPjxwYXRoIGQ9Ik0xMDYuOSAzMS41Yy01IDIuNi0zMC43IDEzLjItMzYuMiAxNi01LjUgMi45LTguNSAyLjgtMTIuOC44LTQuMy0yLjEtMzEuNy0xMy4xLTM2LjYtMTUuNS0yLjUtMS4yLTMuOC0yLjItMy44LTMuMXYtOS40czM1LjYtNy44IDQxLjQtOS44YzUuOC0yLjEgNy44LTIuMSAxMi42LS4zIDQuOSAxLjggMzQuMiA3LjEgMzkgOC44djkuM2MwIC44LTEuMSAxLjktMy42IDMuMnoiIGZpbGw9IiNBNDFFMTEiLz48cGF0aCBkPSJNMTA2LjkgMjIuMWMtNSAyLjYtMzAuNyAxMy4yLTM2LjIgMTYtNS41IDIuOS04LjUgMi44LTEyLjguOC00LjMtMi4xLTMxLjctMTMuMS0zNi42LTE1LjVzLTUtNC0uMi01LjljNC44LTEuOSAzMi4xLTEyLjYgMzcuOC0xNC42QzY0LjcuOCA2Ni43LjggNzEuNSAyLjZjNC45IDEuOCAzMC41IDEyIDM1LjMgMTMuNyA0LjkgMS43IDUuMSAzLjIuMSA1Ljh6IiBmaWxsPSIjRDgyQzIwIi8+PHBhdGggZD0iTTc2LjIgMTNsLTguMS44LTEuOCA0LjQtMi45LTQuOS05LjMtLjhMNjEgMTBsLTItMy44IDYuNSAyLjUgNi4xLTItMS43IDR6TTY1LjggMzQuMWwtMTUtNi4zIDIxLjYtMy4zeiIgZmlsbD0iI2ZmZiIvPjxlbGxpcHNlIHJ5PSI0LjUiIHJ4PSIxMS41IiBjeT0iMTkuOSIgY3g9IjQ1IiBmaWxsPSIjZmZmIi8+PHBhdGggZD0iTTg1LjcgMTQuMmwxMi44IDUtMTIuOCA1LjF6IiBmaWxsPSIjN0EwQzAwIi8+PHBhdGggZD0iTTcxLjYgMTkuOGwxNC4xLTUuNnYxMC4xbC0xLjMuNXoiIGZpbGw9IiNBRDIxMTUiLz48L3N2Zz4=;" parent="1" vertex="1">
          <mxGeometry x="547" y="240" width="55.5" height="55.5" as="geometry" />
        </mxCell>
        <mxCell id="9SrCHgTtJ7KZjs1FLYit-13" value="Urban Waste Management" style="swimlane;rounded=1;dashed=1;strokeColor=#6c8ebf;strokeWidth=2;align=center;verticalAlign=middle;fontFamily=Helvetica;fontSize=12;fontColor=default;fillColor=#dae8fc;gradientColor=#91D7FF;" vertex="1" parent="1">
          <mxGeometry x="186" y="31" width="633" height="588" as="geometry" />
        </mxCell>
        <mxCell id="pCmtLmL86r-4NyQDz8Vy-10" value="" style="shape=image;verticalLabelPosition=bottom;labelBackgroundColor=default;verticalAlign=top;aspect=fixed;imageAspect=0;image=data:image/svg+xml,PHN2ZyB4bWxucz0iaHR0cDovL3d3dy53My5vcmcvMjAwMC9zdmciIHZpZXdCb3g9IjAgMCAxMjggMTI4Ij48cGF0aCBmaWxsPSIjMjMxRjIwIiBkPSJNMTUuODg1IDQxLjIwM2EzLjI5IDMuMjkgMCAwMC0yLjM3MS0uOTk2IDMuMjUgMy4yNSAwIDAwLTIuMzU2Ljk5NmgtLjAxNWEzLjQxOCAzLjQxOCAwIDAwLS45NzMgMi40MDZjMCAuOTUuMzcxIDEuNzk3Ljk3MyAyLjQwM2wuMDE1LjAxNWEzLjI1NiAzLjI1NiAwIDAwMi4zNTYuOTg5IDMuMyAzLjMgMCAwMDIuMzctLjk4OWwuMDA5LS4wMTVhMy4zODggMy4zODggMCAwMC45NzItMi40MDNjMC0uOTQxLS4zNy0xLjc5Ny0uOTcyLTIuNDA2aC0uMDA4em0tMi4zNzEgNDYuNTljLjkzMyAwIDEuNzctLjM4NyAyLjM3LS45OTJsLjAwOS0uMDE2YTMuMzkgMy4zOSAwIDAwLjk3Mi0yLjM5NGMwLS45NS0uMzctMS44MDEtLjk3Mi0yLjQxNGgtLjAwOGEzLjI3NSAzLjI3NSAwIDAwLTIuMzcxLS45OTcgMy4yMyAzLjIzIDAgMDAtMi4zNTYuOTk3aC0uMDE1YTMuNDMgMy40MyAwIDAwLS45NzMgMi40MTRjMCAuOTM3LjM3MSAxLjc4OS45NzMgMi4zOTRsLjAxNS4wMTZhMy4yOSAzLjI5IDAgMDAyLjM1Ni45OTJ6TTMxLjczNiA3Ny40OGEzLjI5NiAzLjI5NiAwIDAwMi4wMzUtMS41ODJsLjA2My0uMTE3YTMuNDMgMy40MyAwIDAwLjI2Ni0yLjQ2NSAzLjM2MyAzLjM2MyAwIDAwLTEuNTYzLTIuMDc0bC0uMDQ3LS4wMzFhMy4yODEgMy4yODEgMCAwMC0yLjQ4OC0uMzA1IDMuMjc4IDMuMjc4IDAgMDAtMi4wMzUgMS41ODYgMy40NDIgMy40NDIgMCAwMDEuMjIyIDQuNjU2aC4wMDRjLjgwMS40NyAxLjcwMy41NTUgMi41NDMuMzMyek0xNi45NDMgNjAuNTEyYTQuODA4IDQuODA4IDAgMDAtMy40My0xLjQ1IDQuOCA0LjggMCAwMC0zLjQyNSAxLjQ1IDQuOTU4IDQuOTU4IDAgMDAtMS40MSAzLjQ4NGMwIDEuMzYzLjUzOSAyLjU5NCAxLjQxIDMuNDk2YTQuODA1IDQuODA1IDAgMDA2Ljg1NSAwIDUgNSAwIDAwMS40MTQtMy40OTYgNC45NDMgNC45NDMgMCAwMC0xLjQxNC0zLjQ4NHptLTEuOTMtNS44MDFhOS4xNjIgOS4xNjIgMCAwMTUuMDMyIDIuNjQ0aC4wMTJjLjIxLjIxNS40MTguNDU0LjYwOS42OTJsMy4zNC0xLjk2NWE3LjM2NiA3LjM2NiAwIDAxLS4xMS00LjE4IDcuMjc4IDcuMjc4IDAgMDEzLjM2NC00LjQ0OWwuMDU0LS4wMzlhNy4wNzggNy4wNzggMCAwMTUuNDE4LS43MDcgNy4yMzUgNy4yMzUgMCAwMTQuMzgzIDMuNDI2di4wMDRhNy40NjQgNy40NjQgMCAwMS43MjMgNS41NjYgNy4yODMgNy4yODMgMCAwMS0zLjM2MyA0LjQ1N2wtLjQ1Ny4yNzRoLS4wNDdhNy4xMyA3LjEzIDAgMDEtNC45NzMuNDYgNy4xNzkgNy4xNzkgMCAwMS0zLjQ5Ni0yLjE4bC0zLjMzMiAxLjk2MmE5LjYxNSA5LjYxNSAwIDAxMCA2LjY1MmwzLjMzMiAxLjk1N2E3LjEwMiA3LjEwMiAwIDAxMy40OTYtMi4xODMgNy4wMDYgNy4wMDYgMCAwMTUuNDc3LjczOGwuMTA5LjA1NXYuMDAzYTcuMzE0IDcuMzE0IDAgMDEzLjI1NCA0LjQwMyA3LjQ1NCA3LjQ1NCAwIDAxLS43MjMgNS41NThsLS4wNjIuMTI1LS4wMDQtLjAxMWE3LjI5NSA3LjI5NSAwIDAxLTQuMzEzIDMuMzIgNy4xNTYgNy4xNTYgMCAwMS01LjQ3Ni0uNzM0di0uMDE2YTcuMzA3IDcuMzA3IDAgMDEtMy4zNjQtNC40NTMgNy4zNCA3LjM0IDAgMDEuMTEtNC4xNzJsLTMuMzQtMS45NjFhOS4yMDQgOS4yMDQgMCAwMS0uNjEuNjhsLS4wMTEuMDExYTkuMTAzIDkuMTAzIDAgMDEtNS4wMzEgMi42M3YzLjkyNWMxLjM4Ni4yOTcgMi42MjkgMSAzLjYwMSAxLjk5MmwuMDA4LjAwOGE3LjM3NSA3LjM3NSAwIDAxMi4xMSA1LjE4OCA3LjM1OCA3LjM1OCAwIDAxLTIuMTEgNS4xNzFsLS4wMDguMDI0Yy0xLjMxMiAxLjMyNC0zLjExMyAyLjE0OC01LjEwMSAyLjE0OGE3LjE2IDcuMTYgMCAwMS01LjA5NC0yLjE0OGgtLjAwOHYtLjAyNEE3LjM2MSA3LjM2MSAwIDAxNi4zIDg0LjM5MWMwLTIuMDI0LjgwOC0zLjg2NCAyLjExMy01LjE4OHYtLjAwOGguMDA4YTcuMTM3IDcuMTM3IDAgMDEzLjU5OC0xLjk5MnYtMy45MjZhOS4wOTIgOS4wOTIgMCAwMS01LjAyOC0yLjYyOWwtLjAxMS0uMDExYTkuNDYgOS40NiAwIDAxLTIuNzExLTYuNjQgOS40NjcgOS40NjcgMCAwMTIuNzEtNi42NDJoLjAxMmE5LjE2NCA5LjE2NCAwIDAxNS4wMjgtMi42NDRWNTAuOGE3LjI2MSA3LjI2MSAwIDAxLTMuNTk4LTEuOTk2aC0uMDA4di0uMDEyQTcuMzgzIDcuMzgzIDAgMDE2LjMgNDMuNjA5YzAtMi4wMTEuODA4LTMuODU1IDIuMTEzLTUuMTgzbC4wMDgtLjAwNGE3LjEzNiA3LjEzNiAwIDAxNS4wOTQtMi4xNTZjMS45ODggMCAzLjc4OS44MjQgNS4xMDEgMi4xNTZ2LjAwNGguMDA4YTcuMzkzIDcuMzkzIDAgMDEyLjExIDUuMTgzIDcuMzggNy4zOCAwIDAxLTIuMTEgNS4xODRsLS4wMDguMDEyYTcuMjU2IDcuMjU2IDAgMDEtMy42MDEgMS45OTZ2My45MXptMTguNzU4LTIuNjFsLS4wMjctLjAzOWEzLjM2NiAzLjM2NiAwIDAwLTIuMDA4LTEuNTQ2IDMuMzAxIDMuMzAxIDAgMDAtMi41NDcuMzRoLjAwNGEzLjM2IDMuMzYgMCAwMC0xLjU2MiAyLjA3IDMuNDUgMy40NSAwIDAwLjMzNiAyLjU4NmwuMDE1LjAyYy40NjEuOCAxLjIgMS4zNCAyLjAyIDEuNTU0YTMuMjIgMy4yMiAwIDAwMi41MzUtLjMzMmwuMDQzLS4wMmEzLjQwMyAzLjQwMyAwIDAwMS41Mi0yLjA0MyAzLjQ3MSAzLjQ3MSAwIDAwLS4zMjktMi41OW0xNC44MTcgMS4xNDloMy43MjZ2MTEuNTc4bDUuMzc1LTYuMDVoNC40N2wtNi40OSA3LjAwNyA2LjUxNyA4Ljg4M2gtNC4yN2wtNS42MDItNy45MzR2Ny45MzRoLTMuNzI2VjUzLjI1bTE3Ljg5OCAxMy41NDNjMCAxLjk2OSAxLjM5IDQuODM2IDQuNzUgNC44MzYgMi4wNzUgMCAzLjQ0Mi0xLjEwMiA0LjE1My0yLjU0Ny4zNy0uNy41MzktMS40NS41OTctMi4yMjdhNS4wMTUgNS4wMTUgMCAwMC0uNDMtMi4yMzRjLS42NTItMS41LTIuMS0yLjgwNS00LjM0Ny0yLjgwNS0zLjAxNiAwLTQuNzIzIDIuNDg5LTQuNzIzIDQuOTV2LjAyN3ptMTMuMTk2IDcuODc1aC0zLjcyN3YtMi4yODVjLS45OTIgMS44NDctMy4wNyAyLjc3My01LjI2MiAyLjc3My01LjAwNCAwLTcuOTMzLTMuOTY1LTcuOTMzLTguNDQ5IDAtNS4wMDQgMy41NTQtOC40MTggNy45MzMtOC40MTggMi44NDQgMCA0LjU3OCAxLjUzMSA1LjI2MiAyLjgwOXYtMi4zMmgzLjcyN3YxNS44OU04My45IDYxLjcwM2gtMS45M3YtMi45MjZoMS45M3YtLjg5NGMwLTQuNzIzIDMuNTMyLTUuMDA0IDYuMjA0LTUuMDM1djIuOTE4Yy0uOTM4IDAtMi40NzMgMC0yLjQ3MyAyLjIzNHYuNzc3aDIuNDczdjIuOTI2SDg3LjYzdjEyLjk2NUg4My45VjYxLjcwM204LjczOS04LjQ1M2gzLjcyNnYxMS41NzhsNS4zNzUtNi4wNWg0LjQ2NWwtNi40ODQgNy4wMDcgNi41MTEgOC44ODNoLTQuMjY1bC01LjYwMi03LjkzNHY3LjkzNEg5Mi42NFY1My4yNW0xNy44OTMgMTMuNTQzYzAgMS45NjkgMS4zOTUgNC44MzYgNC43NSA0LjgzNiAyLjA3NCAwIDMuNDQyLTEuMTAyIDQuMTUzLTIuNTQ3LjM3LS43LjU0My0xLjQ1LjU5Ny0yLjIyN2E1LjAxNSA1LjAxNSAwIDAwLS40My0yLjIzNGMtLjY1Mi0xLjUtMi4xMDEtMi44MDUtNC4zNDctMi44MDUtMy4wMTIgMC00LjcyMyAyLjQ4OS00LjcyMyA0Ljk1di4wMjd6bTEzLjIgNy44NzVoLTMuNzI3di0yLjI4NWMtLjk5NiAxLjg0Ny0zLjA3IDIuNzczLTUuMjYyIDIuNzczLTUuMDA4IDAtNy45MzMtMy45NjUtNy45MzMtOC40NDkgMC01LjAwNCAzLjU1NC04LjQxOCA3LjkzMy04LjQxOCAyLjg0NCAwIDQuNTc4IDEuNTMxIDUuMjYyIDIuODA5di0yLjMyaDMuNzI2djE1Ljg5Ii8+PC9zdmc+;" parent="9SrCHgTtJ7KZjs1FLYit-13" vertex="1">
          <mxGeometry x="133" y="508" width="80" height="80" as="geometry" />
        </mxCell>
        <mxCell id="NwYu7m_eyGxcF0K_Mx45-16" value="&lt;div&gt;bins&lt;/div&gt;&lt;div&gt;weather&lt;/div&gt;&lt;div&gt;pedestrian&lt;br&gt;&lt;/div&gt;" style="text;strokeColor=none;align=center;fillColor=none;html=1;verticalAlign=middle;whiteSpace=wrap;rounded=0;" parent="9SrCHgTtJ7KZjs1FLYit-13" vertex="1">
          <mxGeometry x="150" y="497" width="60" height="30" as="geometry" />
        </mxCell>
        <mxCell id="9SrCHgTtJ7KZjs1FLYit-15" value="Bins API" style="ellipse;shape=cloud;whiteSpace=wrap;html=1;" vertex="1" parent="1">
          <mxGeometry x="33" y="331" width="120" height="80" as="geometry" />
        </mxCell>
        <mxCell id="9SrCHgTtJ7KZjs1FLYit-16" value="Weather API" style="ellipse;shape=cloud;whiteSpace=wrap;html=1;" vertex="1" parent="1">
          <mxGeometry x="33" y="424" width="120" height="80" as="geometry" />
        </mxCell>
        <mxCell id="9SrCHgTtJ7KZjs1FLYit-17" value="&lt;div&gt;Pedestrian API&lt;/div&gt;&lt;div&gt;(generated)&lt;br&gt;&lt;/div&gt;" style="ellipse;shape=cloud;whiteSpace=wrap;html=1;" vertex="1" parent="1">
          <mxGeometry x="33" y="517" width="120" height="80" as="geometry" />
        </mxCell>
        <mxCell id="9SrCHgTtJ7KZjs1FLYit-18" style="edgeStyle=orthogonalEdgeStyle;rounded=0;orthogonalLoop=1;jettySize=auto;html=1;entryX=0.875;entryY=0.5;entryDx=0;entryDy=0;entryPerimeter=0;" edge="1" parent="1" source="NwYu7m_eyGxcF0K_Mx45-9" target="9SrCHgTtJ7KZjs1FLYit-16">
          <mxGeometry relative="1" as="geometry" />
        </mxCell>
        <mxCell id="9SrCHgTtJ7KZjs1FLYit-20" style="edgeStyle=elbowEdgeStyle;rounded=0;orthogonalLoop=1;jettySize=auto;html=1;entryX=0.96;entryY=0.7;entryDx=0;entryDy=0;entryPerimeter=0;" edge="1" parent="1" source="NwYu7m_eyGxcF0K_Mx45-9" target="9SrCHgTtJ7KZjs1FLYit-15">
          <mxGeometry relative="1" as="geometry" />
        </mxCell>
        <mxCell id="9SrCHgTtJ7KZjs1FLYit-21" style="edgeStyle=elbowEdgeStyle;rounded=0;orthogonalLoop=1;jettySize=auto;html=1;entryX=0.96;entryY=0.7;entryDx=0;entryDy=0;entryPerimeter=0;" edge="1" parent="1" source="NwYu7m_eyGxcF0K_Mx45-9" target="9SrCHgTtJ7KZjs1FLYit-17">
          <mxGeometry relative="1" as="geometry" />
        </mxCell>
      </root>
    </mxGraphModel>
  </diagram>
</mxfile>
